SplineFontDB: 3.2
FontName: icon_font
FullName: icon_font
FamilyName: icon_font
Weight: Book
Version: 1.0
ItalicAngle: 0
UnderlinePosition: 0
UnderlineWidth: 0
Ascent: 960
Descent: 64
InvalidEm: 0
sfntRevision: 0x00010000
LayerCount: 2
Layer: 0 1 "Back" 1
Layer: 1 1 "Fore" 0
XUID: [1021 513 734463440 14803378]
StyleMap: 0x0040
FSType: 0
OS2Version: 3
OS2_WeightWidthSlopeOnly: 0
OS2_UseTypoMetrics: 0
CreationTime: 1678684616
ModificationTime: 1699726297
PfmFamily: 81
TTFWeight: 400
TTFWidth: 5
LineGap: 0
VLineGap: 0
Panose: 0 0 0 0 0 0 0 0 0 0
OS2TypoAscent: 960
OS2TypoAOffset: 0
OS2TypoDescent: -64
OS2TypoDOffset: 0
OS2TypoLinegap: 64
OS2WinAscent: 960
OS2WinAOffset: 0
OS2WinDescent: 64
OS2WinDOffset: 0
HheadAscent: 960
HheadAOffset: 0
HheadDescent: -64
HheadDOffset: 0
OS2SubXSize: 665
OS2SubYSize: 716
OS2SubXOff: 0
OS2SubYOff: 143
OS2SupXSize: 665
OS2SupYSize: 716
OS2SupXOff: 0
OS2SupYOff: 491
OS2StrikeYSize: 51
OS2StrikeYPos: 265
OS2CodePages: 00000001.00000000
OS2UnicodeRanges: 00000001.10000000.00000000.00000000
DEI: 91125
ShortTable: maxp 16
  1
  0
  28
  253
  9
  0
  0
  2
  0
  0
  0
  0
  0
  0
  0
  0
EndShort
LangName: 1033 "" "" "Regular" "icon_font" "" "Version 1.0" "" "" "" "" "Font generated by IcoMoon."
GaspTable: 1 65535 15 1
Encoding: UnicodeBmp
UnicodeInterp: none
NameList: AGL For New Fonts
DisplaySize: -48
AntiAlias: 1
FitToEm: 0
WinInfo: 59631 33 12
BeginChars: 65536 34

StartChar: uni0000
Encoding: 0 0 0
Width: 0
GlyphClass: 1
Flags: W
LayerCount: 2
Fore
SplineSet
0 0 m 1,0,-1
 0 0 l 1,1,-1
 0 0 l 1,2,-1
 0 0 l 1,0,-1
EndSplineSet
EndChar

StartChar: uni0001
Encoding: 1 1 1
Width: 0
GlyphClass: 1
Flags: W
LayerCount: 2
Fore
SplineSet
0 0 m 1,0,-1
 0 0 l 1,1,-1
 0 0 l 1,2,-1
 0 0 l 1,0,-1
EndSplineSet
EndChar

StartChar: space
Encoding: 32 32 2
Width: 512
GlyphClass: 1
Flags: W
LayerCount: 2
Fore
SplineSet
0 0 m 1,0,-1
 0 0 l 1,1,-1
 0 0 l 1,2,-1
 0 0 l 1,0,-1
EndSplineSet
EndChar

StartChar: uniE900
Encoding: 59648 59648 3
Width: 1024
GlyphClass: 1
Flags: W
LayerCount: 2
Fore
SplineSet
153 592 m 1,0,-1
 287 592 l 1,1,-1
 287 304 l 1,2,-1
 153 304 l 1,3,-1
 153 592 l 1,0,-1
EndSplineSet
EndChar

StartChar: uniE901
Encoding: 59649 59649 4
Width: 1024
GlyphClass: 1
Flags: W
LayerCount: 2
Fore
SplineSet
153 592 m 1,0,-1
 421 592 l 1,1,-1
 421 304 l 1,2,-1
 153 304 l 1,3,-1
 153 592 l 1,0,-1
EndSplineSet
EndChar

StartChar: uniE902
Encoding: 59650 59650 5
Width: 1024
GlyphClass: 1
Flags: W
LayerCount: 2
Fore
SplineSet
153 592 m 1,0,-1
 554 592 l 1,1,-1
 554 304 l 1,2,-1
 153 304 l 1,3,-1
 153 592 l 1,0,-1
EndSplineSet
EndChar

StartChar: uniE903
Encoding: 59651 59651 6
Width: 1024
GlyphClass: 1
Flags: W
LayerCount: 2
Fore
SplineSet
153 592 m 1,0,-1
 688 592 l 1,1,-1
 688 304 l 1,2,-1
 153 304 l 1,3,-1
 153 592 l 1,0,-1
EndSplineSet
EndChar

StartChar: uniE904
Encoding: 59652 59652 7
Width: 1024
GlyphClass: 1
Flags: W
LayerCount: 2
Fore
SplineSet
153 592 m 1,0,-1
 822 592 l 1,1,-1
 822 304 l 1,2,-1
 153 304 l 1,3,-1
 153 592 l 1,0,-1
EndSplineSet
EndChar

StartChar: uniE905
Encoding: 59653 59653 8
Width: 1024
GlyphClass: 1
Flags: W
LayerCount: 2
Fore
SplineSet
98 741 m 1,0,1
 98 741 98 741 98 741 c 129,-1,2
 98 741 98 741 98 741 c 1,3,4
 57 741 57 741 28.5 712 c 128,-1,5
 0 683 0 683 0 643 c 1,6,7
 0 643 0 643 0 643 c 129,-1,8
 0 643 0 643 0 643 c 1,9,-1
 0 643 l 1,10,-1
 0 253 l 1,11,12
 0 253 0 253 0 253 c 129,-1,13
 0 253 0 253 0 253 c 1,14,15
 0 213 0 213 28.5 184 c 128,-1,16
 57 155 57 155 98 155 c 1,17,18
 98 155 98 155 98 155 c 129,-1,19
 98 155 98 155 98 155 c 1,20,-1
 878 155 l 1,21,22
 878 155 878 155 878 155 c 129,-1,23
 878 155 878 155 878 155 c 1,24,25
 918 155 918 155 946.5 184 c 128,-1,26
 975 213 975 213 975 253 c 1,27,28
 975 253 975 253 975 253 c 129,-1,29
 975 253 975 253 975 253 c 1,30,-1
 975 253 l 1,31,-1
 975 350 l 1,32,33
 996 350 996 350 1010 364.5 c 128,-1,34
 1024 379 1024 379 1024 399 c 2,35,-1
 1024 497 l 2,36,37
 1024 517 1024 517 1010 531.5 c 128,-1,38
 996 546 996 546 975 546 c 1,39,-1
 975 643 l 1,40,41
 975 643 975 643 975 643 c 129,-1,42
 975 643 975 643 975 643 c 1,43,44
 975 683 975 683 946.5 712 c 128,-1,45
 918 741 918 741 878 741 c 1,46,47
 878 741 878 741 878 741 c 129,-1,48
 878 741 878 741 878 741 c 1,49,-1
 98 741 l 1,50,-1
 98 741 l 1,0,1
98 643 m 1,51,-1
 878 643 l 1,52,-1
 878 253 l 1,53,-1
 98 253 l 1,54,-1
 98 643 l 1,51,-1
EndSplineSet
EndChar

StartChar: uniE906
Encoding: 59654 59654 9
Width: 1024
GlyphClass: 1
Flags: W
LayerCount: 2
Fore
SplineSet
154 592 m 1,0,-1
 154 304 l 1,1,-1
 354 304 l 1,2,-1
 408 389 l 1,3,-1
 252 488 l 1,4,-1
 388 592 l 1,5,-1
 154 592 l 1,0,-1
621 592 m 1,6,-1
 567 507 l 1,7,-1
 723 408 l 1,8,-1
 587 304 l 1,9,-1
 823 304 l 1,10,-1
 823 592 l 1,11,-1
 621 592 l 1,12,-1
 621 592 l 1,6,-1
EndSplineSet
EndChar

StartChar: uniE907
Encoding: 59655 59655 10
Width: 1024
GlyphClass: 1
Flags: W
LayerCount: 2
Fore
SplineSet
705 790 m 1,0,-1
 314 490 l 1,1,-1
 457 400 l 1,2,-1
 271 106 l 1,3,-1
 661 406 l 1,4,-1
 518 496 l 1,5,-1
 705 790 l 1,0,-1
98 741 m 1,6,7
 98 741 98 741 98 741 c 129,-1,8
 98 741 98 741 98 741 c 1,9,10
 57 741 57 741 28.5 712 c 128,-1,11
 0 683 0 683 0 643 c 1,12,13
 0 643 0 643 0 643 c 129,-1,14
 0 643 0 643 0 643 c 1,15,-1
 0 643 l 1,16,-1
 0 253 l 1,17,18
 0 253 0 253 0 253 c 129,-1,19
 0 253 0 253 0 253 c 1,20,21
 0 213 0 213 28.5 184 c 128,-1,22
 57 155 57 155 98 155 c 1,23,24
 98 155 98 155 98 155 c 129,-1,25
 98 155 98 155 98 155 c 1,26,-1
 260 155 l 1,27,-1
 322 253 l 1,28,-1
 98 253 l 1,29,-1
 98 643 l 1,30,-1
 455 643 l 1,31,-1
 582 741 l 1,32,-1
 98 741 l 1,33,-1
 98 741 l 1,6,7
716 741 m 1,34,-1
 654 643 l 1,35,-1
 878 643 l 1,36,-1
 878 253 l 1,37,-1
 520 253 l 1,38,-1
 393 155 l 1,39,-1
 878 155 l 1,40,41
 878 155 878 155 878 155 c 129,-1,42
 878 155 878 155 878 155 c 1,43,44
 918 155 918 155 946.5 184 c 128,-1,45
 975 213 975 213 975 253 c 1,46,47
 975 253 975 253 975 253 c 129,-1,48
 975 253 975 253 975 253 c 1,49,-1
 975 253 l 1,50,-1
 975 350 l 1,51,52
 996 350 996 350 1010 364.5 c 128,-1,53
 1024 379 1024 379 1024 399 c 2,54,-1
 1024 497 l 2,55,56
 1024 517 1024 517 1010 531.5 c 128,-1,57
 996 546 996 546 975 546 c 1,58,-1
 975 643 l 1,59,60
 975 643 975 643 975 643 c 129,-1,61
 975 643 975 643 975 643 c 1,62,63
 975 683 975 683 946.5 712 c 128,-1,64
 918 741 918 741 878 741 c 1,65,66
 878 741 878 741 878 741 c 129,-1,67
 878 741 878 741 878 741 c 1,68,-1
 716 741 l 1,69,-1
 716 741 l 1,34,-1
EndSplineSet
EndChar

StartChar: uniE908
Encoding: 59656 59656 11
Width: 1024
GlyphClass: 1
Flags: W
LayerCount: 2
Fore
SplineSet
512 960 m 1,0,1
 472 960 472 960 443.5 931.5 c 128,-1,2
 415 903 415 903 415 863 c 1,3,-1
 415 863 l 1,4,5
 415 823 415 823 443.5 794.5 c 128,-1,6
 472 766 472 766 512 766 c 1,7,-1
 512 766 l 1,8,9
 552 766 552 766 580.5 794.5 c 128,-1,10
 609 823 609 823 609 863 c 1,11,-1
 609 863 l 1,12,13
 609 903 609 903 580.5 931.5 c 128,-1,14
 552 960 552 960 512 960 c 1,15,-1
 512 960 l 1,0,1
212 838 m 1,16,17
 193 837 193 837 177.5 829.5 c 128,-1,18
 162 822 162 822 150 810 c 1,19,-1
 150 810 l 1,20,21
 137 797 137 797 129.5 779.5 c 128,-1,22
 122 762 122 762 122 741 c 0,23,24
 122 721 122 721 129.5 703.5 c 128,-1,25
 137 686 137 686 150 673 c 1,26,-1
 150 673 l 1,27,28
 163 660 163 660 180.5 652.5 c 128,-1,29
 198 645 198 645 219 645 c 0,30,31
 239 645 239 645 256.5 652.5 c 128,-1,32
 274 660 274 660 287 673 c 1,33,-1
 287 673 l 1,34,35
 300 686 300 686 307.5 703.5 c 128,-1,36
 315 721 315 721 315 741 c 0,37,38
 315 762 315 762 307.5 779.5 c 128,-1,39
 300 797 300 797 287 810 c 1,40,-1
 287 810 l 1,41,42
 274 823 274 823 256.5 830.5 c 128,-1,43
 239 838 239 838 219 838 c 0,44,45
 217 838 217 838 215 838 c 128,-1,46
 213 838 213 838 211 838 c 1,47,-1
 212 838 l 1,48,-1
 212 838 l 1,16,17
799 838 m 1,49,50
 780 837 780 837 764.5 829.5 c 128,-1,51
 749 822 749 822 737 810 c 1,52,-1
 737 810 l 1,53,54
 724 797 724 797 716.5 779.5 c 128,-1,55
 709 762 709 762 709 741 c 0,56,57
 709 721 709 721 716.5 703.5 c 128,-1,58
 724 686 724 686 737 673 c 1,59,-1
 737 673 l 1,60,61
 750 660 750 660 767.5 652.5 c 128,-1,62
 785 645 785 645 805 645 c 0,63,64
 826 645 826 645 843.5 652.5 c 128,-1,65
 861 660 861 660 874 673 c 1,66,-1
 874 673 l 1,67,68
 887 686 887 686 894.5 703.5 c 128,-1,69
 902 721 902 721 902 741 c 0,70,71
 902 762 902 762 894.5 779.5 c 128,-1,72
 887 797 887 797 874 810 c 1,73,-1
 874 810 l 1,74,75
 861 823 861 823 843.5 830.5 c 128,-1,76
 826 838 826 838 805 838 c 0,77,78
 804 838 804 838 802 838 c 128,-1,79
 800 838 800 838 798 838 c 1,80,-1
 799 838 l 1,81,-1
 799 838 l 1,49,50
512 647 m 1,82,83
 512 647 512 647 512 647 c 129,-1,84
 512 647 512 647 512 647 c 1,85,86
 471 647 471 647 435 631 c 0,87,88
 398 616 398 616 371 589 c 128,-1,89
 344 562 344 562 329 525 c 0,90,91
 313 489 313 489 313 448 c 1,92,93
 313 448 313 448 313 448 c 129,-1,94
 313 448 313 448 313 448 c 1,95,-1
 313 448 l 1,96,97
 313 448 313 448 313 448 c 129,-1,98
 313 448 313 448 313 448 c 1,99,100
 313 407 313 407 329 371 c 0,101,102
 344 334 344 334 371 307 c 128,-1,103
 398 280 398 280 435 265 c 0,104,105
 471 249 471 249 512 249 c 1,106,107
 512 249 512 249 512 249 c 129,-1,108
 512 249 512 249 512 249 c 1,109,-1
 512 249 l 1,110,111
 512 249 512 249 512 249 c 129,-1,112
 512 249 512 249 512 249 c 1,113,114
 553 249 553 249 589 265 c 0,115,116
 626 280 626 280 653 307 c 128,-1,117
 680 334 680 334 695 371 c 0,118,119
 711 407 711 407 711 448 c 1,120,121
 711 448 711 448 711 448 c 129,-1,122
 711 448 711 448 711 448 c 1,123,-1
 711 448 l 1,124,125
 711 448 711 448 711 448 c 129,-1,126
 711 448 711 448 711 448 c 1,127,128
 711 489 711 489 695 525 c 0,129,130
 680 562 680 562 653 589 c 128,-1,131
 626 616 626 616 589 631 c 0,132,133
 553 647 553 647 512 647 c 1,134,135
 512 647 512 647 512 647 c 129,-1,136
 512 647 512 647 512 647 c 1,137,-1
 512 647 l 1,138,-1
 512 647 l 1,82,83
97 545 m 1,139,140
 57 545 57 545 28.5 516.5 c 128,-1,141
 0 488 0 488 0 448 c 1,142,-1
 0 448 l 1,143,144
 0 408 0 408 28.5 379.5 c 128,-1,145
 57 351 57 351 97 351 c 1,146,-1
 97 351 l 1,147,148
 137 351 137 351 165.5 379.5 c 128,-1,149
 194 408 194 408 194 448 c 1,150,-1
 194 448 l 1,151,152
 194 488 194 488 165.5 516.5 c 128,-1,153
 137 545 137 545 97 545 c 1,154,-1
 97 545 l 1,139,140
927 545 m 1,155,156
 887 545 887 545 858.5 516.5 c 128,-1,157
 830 488 830 488 830 448 c 1,158,-1
 830 448 l 1,159,160
 830 408 830 408 858.5 379.5 c 128,-1,161
 887 351 887 351 927 351 c 1,162,-1
 927 351 l 1,163,164
 967 351 967 351 995.5 379.5 c 128,-1,165
 1024 408 1024 408 1024 448 c 1,166,-1
 1024 448 l 1,167,168
 1024 488 1024 488 995.5 516.5 c 128,-1,169
 967 545 967 545 927 545 c 1,170,-1
 927 545 l 1,155,156
212 251 m 1,171,172
 193 250 193 250 177.5 242.5 c 128,-1,173
 162 235 162 235 150 223 c 1,174,-1
 150 223 l 1,175,176
 137 210 137 210 129.5 192.5 c 128,-1,177
 122 175 122 175 122 155 c 0,178,179
 122 134 122 134 129.5 116.5 c 128,-1,180
 137 99 137 99 150 86 c 1,181,-1
 150 86 l 1,182,183
 163 73 163 73 180.5 65.5 c 128,-1,184
 198 58 198 58 219 58 c 0,185,186
 239 58 239 58 256.5 65.5 c 128,-1,187
 274 73 274 73 287 86 c 1,188,-1
 287 86 l 1,189,190
 300 99 300 99 307.5 116.5 c 128,-1,191
 315 134 315 134 315 155 c 0,192,193
 315 175 315 175 307.5 192.5 c 128,-1,194
 300 210 300 210 287 223 c 1,195,-1
 287 223 l 1,196,197
 274 236 274 236 256.5 243.5 c 128,-1,198
 239 251 239 251 219 251 c 0,199,200
 217 251 217 251 215 251 c 128,-1,201
 213 251 213 251 211 251 c 1,202,-1
 212 251 l 1,203,-1
 212 251 l 1,171,172
799 251 m 1,204,205
 780 250 780 250 764.5 242.5 c 128,-1,206
 749 235 749 235 737 223 c 1,207,-1
 737 223 l 1,208,209
 724 210 724 210 716.5 192.5 c 128,-1,210
 709 175 709 175 709 155 c 0,211,212
 709 134 709 134 716.5 116.5 c 128,-1,213
 724 99 724 99 737 86 c 1,214,-1
 737 86 l 1,215,216
 750 73 750 73 767.5 65.5 c 128,-1,217
 785 58 785 58 805 58 c 0,218,219
 826 58 826 58 843.5 65.5 c 128,-1,220
 861 73 861 73 874 86 c 1,221,-1
 874 86 l 1,222,223
 887 99 887 99 894.5 116.5 c 128,-1,224
 902 134 902 134 902 155 c 0,225,226
 902 175 902 175 894.5 192.5 c 128,-1,227
 887 210 887 210 874 223 c 1,228,-1
 874 223 l 1,229,230
 861 236 861 236 843.5 243.5 c 128,-1,231
 826 251 826 251 805 251 c 0,232,233
 804 251 804 251 802 251 c 128,-1,234
 800 251 800 251 798 251 c 1,235,-1
 799 251 l 1,236,-1
 799 251 l 1,204,205
512 130 m 1,237,238
 472 130 472 130 443.5 101.5 c 128,-1,239
 415 73 415 73 415 33 c 1,240,-1
 415 33 l 1,241,242
 415 -7 415 -7 443.5 -35.5 c 128,-1,243
 472 -64 472 -64 512 -64 c 1,244,-1
 512 -64 l 1,245,246
 552 -64 552 -64 580.5 -35.5 c 128,-1,247
 609 -7 609 -7 609 33 c 1,248,-1
 609 33 l 1,249,250
 609 73 609 73 580.5 101.5 c 128,-1,251
 552 130 552 130 512 130 c 1,252,-1
 512 130 l 1,237,238
EndSplineSet
EndChar

StartChar: uniE909
Encoding: 59657 59657 12
Width: 1024
GlyphClass: 1
Flags: W
LayerCount: 2
Fore
SplineSet
977 588 m 1,0,1
 997 588 997 588 1010.5 601.5 c 128,-1,2
 1024 615 1024 615 1024 634 c 256,3,4
 1024 653 1024 653 1010.5 667 c 128,-1,5
 997 681 997 681 977 681 c 2,6,-1
 869 681 l 1,7,-1
 869 758 l 2,8,9
 869 778 869 778 855.5 791.5 c 128,-1,10
 842 805 842 805 822 805 c 2,11,-1
 745 805 l 1,12,-1
 745 913 l 2,13,14
 745 933 745 933 731 946.5 c 128,-1,15
 717 960 717 960 698 960 c 256,16,17
 679 960 679 960 665.5 946.5 c 128,-1,18
 652 933 652 933 652 913 c 2,19,-1
 652 805 l 1,20,-1
 559 805 l 1,21,-1
 559 913 l 2,22,23
 559 933 559 933 545 946.5 c 128,-1,24
 531 960 531 960 512 960 c 256,25,26
 493 960 493 960 479 946.5 c 128,-1,27
 465 933 465 933 465 913 c 2,28,-1
 465 805 l 1,29,-1
 372 805 l 1,30,-1
 372 913 l 2,31,32
 372 933 372 933 358.5 946.5 c 128,-1,33
 345 960 345 960 326 960 c 256,34,35
 307 960 307 960 293 946.5 c 128,-1,36
 279 933 279 933 279 913 c 2,37,-1
 279 805 l 1,38,-1
 202 805 l 2,39,40
 182 805 182 805 168.5 791.5 c 128,-1,41
 155 778 155 778 155 758 c 2,42,-1
 155 681 l 1,43,-1
 47 681 l 2,44,45
 27 681 27 681 13.5 667 c 128,-1,46
 0 653 0 653 0 634 c 256,47,48
 0 615 0 615 13.5 601.5 c 128,-1,49
 27 588 27 588 47 588 c 2,50,-1
 155 588 l 1,51,-1
 155 495 l 1,52,-1
 47 495 l 2,53,54
 27 495 27 495 13.5 481 c 128,-1,55
 0 467 0 467 0 448 c 256,56,57
 0 429 0 429 13.5 415 c 128,-1,58
 27 401 27 401 47 401 c 2,59,-1
 155 401 l 1,60,-1
 155 308 l 1,61,-1
 47 308 l 2,62,63
 27 308 27 308 13.5 294.5 c 128,-1,64
 0 281 0 281 0 262 c 256,65,66
 0 243 0 243 13.5 229 c 128,-1,67
 27 215 27 215 47 215 c 2,68,-1
 155 215 l 1,69,-1
 155 138 l 2,70,71
 155 118 155 118 168.5 104.5 c 128,-1,72
 182 91 182 91 202 91 c 2,73,-1
 279 91 l 1,74,-1
 279 -17 l 2,75,76
 279 -37 279 -37 293 -50.5 c 128,-1,77
 307 -64 307 -64 326 -64 c 256,78,79
 345 -64 345 -64 358.5 -50.5 c 128,-1,80
 372 -37 372 -37 372 -17 c 2,81,-1
 372 91 l 1,82,-1
 465 91 l 1,83,-1
 465 -17 l 2,84,85
 465 -37 465 -37 479 -50.5 c 128,-1,86
 493 -64 493 -64 512 -64 c 256,87,88
 531 -64 531 -64 545 -50.5 c 128,-1,89
 559 -37 559 -37 559 -17 c 2,90,-1
 559 91 l 1,91,-1
 652 91 l 1,92,-1
 652 -17 l 2,93,94
 652 -37 652 -37 665.5 -50.5 c 128,-1,95
 679 -64 679 -64 698 -64 c 256,96,97
 717 -64 717 -64 731 -50.5 c 128,-1,98
 745 -37 745 -37 745 -17 c 2,99,-1
 745 91 l 1,100,-1
 822 91 l 2,101,102
 842 91 842 91 855.5 104.5 c 128,-1,103
 869 118 869 118 869 138 c 2,104,-1
 869 215 l 1,105,-1
 977 215 l 2,106,107
 997 215 997 215 1010.5 229 c 128,-1,108
 1024 243 1024 243 1024 262 c 256,109,110
 1024 281 1024 281 1010.5 294.5 c 128,-1,111
 997 308 997 308 977 308 c 2,112,-1
 869 308 l 1,113,-1
 869 401 l 1,114,-1
 977 401 l 2,115,116
 997 401 997 401 1010.5 415 c 128,-1,117
 1024 429 1024 429 1024 448 c 256,118,119
 1024 467 1024 467 1010.5 481 c 128,-1,120
 997 495 997 495 977 495 c 2,121,-1
 869 495 l 1,122,-1
 869 588 l 1,123,-1
 977 588 l 1,124,-1
 977 588 l 1,0,1
683 324 m 2,125,126
 683 305 683 305 669 291 c 128,-1,127
 655 277 655 277 636 277 c 2,128,-1
 388 277 l 2,129,130
 369 277 369 277 355 291 c 128,-1,131
 341 305 341 305 341 324 c 2,132,-1
 341 572 l 2,133,134
 341 591 341 591 355 605 c 128,-1,135
 369 619 369 619 388 619 c 2,136,-1
 636 619 l 2,137,138
 655 619 655 619 669 605 c 128,-1,139
 683 591 683 591 683 572 c 2,140,-1
 683 324 l 2,125,126
EndSplineSet
EndChar

StartChar: uniE90A
Encoding: 59658 59658 13
Width: 1024
GlyphClass: 1
Flags: W
LayerCount: 2
Fore
SplineSet
1024 648 m 1,0,-1
 1024 704 l 2,1,2
 1024 725 1024 725 1009 740 c 128,-1,3
 994 755 994 755 973 755 c 2,4,-1
 51 755 l 2,5,6
 30 755 30 755 15 740 c 128,-1,7
 0 725 0 725 0 704 c 2,8,-1
 0 648 l 1,9,10
 22 640 22 640 36.5 620.5 c 128,-1,11
 51 601 51 601 51 576 c 256,12,13
 51 551 51 551 36.5 531.5 c 128,-1,14
 22 512 22 512 0 504 c 1,15,-1
 0 346 l 1,16,-1
 1024 346 l 1,17,-1
 1024 504 l 1,18,19
 1002 512 1002 512 987.5 531.5 c 128,-1,20
 973 551 973 551 973 576 c 256,21,22
 973 601 973 601 987.5 620.5 c 128,-1,23
 1002 640 1002 640 1024 648 c 1,24,-1
 1024 648 l 1,0,-1
358 448 m 1,25,-1
 256 448 l 1,26,-1
 256 653 l 1,27,-1
 358 653 l 1,28,-1
 358 448 l 1,25,-1
563 448 m 1,29,-1
 461 448 l 1,30,-1
 461 653 l 1,31,-1
 563 653 l 1,32,-1
 563 448 l 1,29,-1
768 448 m 1,33,-1
 666 448 l 1,34,-1
 666 653 l 1,35,-1
 768 653 l 1,36,-1
 768 448 l 1,33,-1
0 141 m 1,37,-1
 102 141 l 1,38,-1
 102 183 l 2,39,40
 102 194 102 194 109.5 201.5 c 128,-1,41
 117 209 117 209 128 209 c 256,42,43
 139 209 139 209 146.5 201.5 c 128,-1,44
 154 194 154 194 154 183 c 2,45,-1
 154 141 l 1,46,-1
 358 141 l 1,47,-1
 358 183 l 2,48,49
 358 194 358 194 365.5 201.5 c 128,-1,50
 373 209 373 209 384 209 c 256,51,52
 395 209 395 209 402.5 201.5 c 128,-1,53
 410 194 410 194 410 183 c 2,54,-1
 410 141 l 1,55,-1
 614 141 l 1,56,-1
 614 183 l 2,57,58
 614 194 614 194 621.5 201.5 c 128,-1,59
 629 209 629 209 640 209 c 256,60,61
 651 209 651 209 658.5 201.5 c 128,-1,62
 666 194 666 194 666 183 c 2,63,-1
 666 141 l 1,64,-1
 870 141 l 1,65,-1
 870 183 l 2,66,67
 870 194 870 194 877.5 201.5 c 128,-1,68
 885 209 885 209 896 209 c 256,69,70
 907 209 907 209 914.5 201.5 c 128,-1,71
 922 194 922 194 922 183 c 2,72,-1
 922 141 l 1,73,-1
 1024 141 l 1,74,-1
 1024 294 l 1,75,-1
 0 294 l 1,76,-1
 0 141 l 1,77,-1
 0 141 l 1,37,-1
EndSplineSet
EndChar

StartChar: uniE90B
Encoding: 59659 59659 14
Width: 1024
GlyphClass: 1
Flags: W
LayerCount: 2
Fore
SplineSet
512 832 m 1,0,1
 489 791 489 791 476 742.5 c 128,-1,2
 463 694 463 694 463 642 c 0,3,4
 463 641 463 641 463 641 c 129,-1,5
 463 641 463 641 463 641 c 1,6,-1
 463 641 l 1,7,8
 463 639 463 639 463 636.5 c 128,-1,9
 463 634 463 634 463 632 c 0,10,11
 463 555 463 555 492 488 c 0,12,13
 520 420 520 420 569.5 369.5 c 128,-1,14
 619 319 619 319 686 289 c 0,15,16
 752 258 752 258 828 256 c 2,17,-1
 829 256 l 2,18,19
 835 256 835 256 841 256.5 c 128,-1,20
 847 257 847 257 853 258 c 1,21,22
 830 215 830 215 797 179 c 0,23,24
 764 144 764 144 723 118.5 c 128,-1,25
 682 93 682 93 635 79 c 256,26,27
 588 65 588 65 536 64 c 1,28,-1
 536 64 l 1,29,30
 460 66 460 66 393 96 c 0,31,32
 327 126 327 126 277.5 177 c 128,-1,33
 228 228 228 228 199 295 c 0,34,35
 171 363 171 363 171 439 c 0,36,37
 171 442 171 442 171 444.5 c 128,-1,38
 171 447 171 447 171 449 c 1,39,-1
 171 449 l 1,40,41
 171 450 171 450 171 452.5 c 128,-1,42
 171 455 171 455 171 457 c 0,43,44
 171 530 171 530 197 595 c 0,45,46
 223 661 223 661 269 711 c 128,-1,47
 315 761 315 761 377 793 c 256,48,49
 439 825 439 825 510 832 c 1,50,-1
 512 832 l 1,51,-1
 512 832 l 1,0,1
EndSplineSet
EndChar

StartChar: uniE90C
Encoding: 59660 59660 15
Width: 1024
GlyphClass: 1
Flags: W
LayerCount: 2
Fore
SplineSet
322 818 m 1,0,1
 313 818 313 818 306 814.5 c 128,-1,2
 299 811 299 811 294 805 c 1,3,-1
 294 805 l 1,4,-1
 162 650 l 1,5,-1
 36 650 l 2,6,7
 21 650 21 650 10.5 639.5 c 128,-1,8
 0 629 0 629 0 614 c 1,9,-1
 0 614 l 1,10,-1
 0 282 l 1,11,12
 0 282 0 282 0 282 c 129,-1,13
 0 282 0 282 0 282 c 1,14,15
 0 267 0 267 10.5 256.5 c 128,-1,16
 21 246 21 246 36 246 c 2,17,-1
 162 246 l 1,18,-1
 294 91 l 2,19,20
 299 86 299 86 306 82.5 c 128,-1,21
 313 79 313 79 322 79 c 2,22,-1
 356 79 l 1,23,24
 356 79 356 79 356 79 c 129,-1,25
 356 79 356 79 356 79 c 1,26,27
 371 79 371 79 381.5 89.5 c 128,-1,28
 392 100 392 100 392 115 c 2,29,-1
 392 781 l 2,30,31
 392 796 392 796 381.5 807 c 128,-1,32
 371 818 371 818 356 818 c 1,33,34
 356 818 356 818 356 818 c 129,-1,35
 356 818 356 818 356 818 c 1,36,-1
 322 818 l 1,37,-1
 322 818 l 1,0,1
EndSplineSet
EndChar

StartChar: uniE90D
Encoding: 59661 59661 16
Width: 1024
GlyphClass: 1
Flags: W
LayerCount: 2
Fore
SplineSet
568 267 m 1,0,1
 603 302 603 302 623 348.5 c 128,-1,2
 643 395 643 395 643 448 c 1,3,-1
 643 448 l 1,4,5
 643 500 643 500 623.5 545.5 c 128,-1,6
 604 591 604 591 571 625 c 1,7,-1
 571 625 l 1,8,9
 570 626 570 626 569.5 627 c 128,-1,10
 569 628 569 628 568 629 c 1,11,-1
 568 629 l 1,12,13
 561 636 561 636 551.5 640 c 128,-1,14
 542 644 542 644 531 644 c 256,15,16
 520 644 520 644 510.5 640 c 128,-1,17
 501 636 501 636 494 629 c 1,18,-1
 494 629 l 1,19,20
 486 622 486 622 482 612.5 c 128,-1,21
 478 603 478 603 478 592 c 256,22,23
 478 581 478 581 482 571.5 c 128,-1,24
 486 562 486 562 494 555 c 1,25,-1
 494 555 l 1,26,-1
 493 555 l 1,27,28
 514 534 514 534 526 506.5 c 128,-1,29
 538 479 538 479 538 448 c 1,30,-1
 538 448 l 1,31,32
 538 417 538 417 526 389.5 c 128,-1,33
 514 362 514 362 494 342 c 1,34,-1
 494 342 l 1,35,36
 494 342 494 342 494 342 c 129,-1,37
 494 342 494 342 494 342 c 1,38,-1
 494 342 l 1,39,40
 486 334 486 334 482 324.5 c 128,-1,41
 478 315 478 315 478 304 c 0,42,43
 478 294 478 294 482 284 c 128,-1,44
 486 274 486 274 494 267 c 1,45,-1
 494 267 l 1,46,47
 501 260 501 260 510.5 256 c 128,-1,48
 520 252 520 252 531 252 c 256,49,50
 542 252 542 252 551.5 256 c 128,-1,51
 561 260 561 260 568 267 c 1,52,-1
 568 267 l 1,53,-1
 568 267 l 1,0,1
322 818 m 1,54,55
 313 818 313 818 306 814.5 c 128,-1,56
 299 811 299 811 294 805 c 1,57,-1
 294 805 l 1,58,-1
 162 650 l 1,59,-1
 36 650 l 2,60,61
 21 650 21 650 10.5 639.5 c 128,-1,62
 0 629 0 629 0 614 c 1,63,-1
 0 614 l 1,64,-1
 0 282 l 1,65,66
 0 282 0 282 0 282 c 129,-1,67
 0 282 0 282 0 282 c 1,68,69
 0 267 0 267 10.5 256.5 c 128,-1,70
 21 246 21 246 36 246 c 2,71,-1
 162 246 l 1,72,-1
 294 91 l 2,73,74
 299 86 299 86 306 82.5 c 128,-1,75
 313 79 313 79 322 79 c 2,76,-1
 356 79 l 1,77,78
 356 79 356 79 356 79 c 129,-1,79
 356 79 356 79 356 79 c 1,80,81
 371 79 371 79 381.5 89.5 c 128,-1,82
 392 100 392 100 392 115 c 2,83,-1
 392 781 l 2,84,85
 392 796 392 796 381.5 807 c 128,-1,86
 371 818 371 818 356 818 c 1,87,88
 356 818 356 818 356 818 c 129,-1,89
 356 818 356 818 356 818 c 1,90,-1
 322 818 l 1,91,-1
 322 818 l 1,54,55
EndSplineSet
EndChar

StartChar: uniE90E
Encoding: 59662 59662 17
Width: 1024
GlyphClass: 1
Flags: W
LayerCount: 2
Fore
SplineSet
709 156 m 1,0,1
 709 156 709 156 709.5 156 c 128,-1,2
 710 156 710 156 710 156 c 1,3,-1
 710 156 l 1,4,5
 738 184 738 184 760 217 c 256,6,7
 782 250 782 250 798 287 c 128,-1,8
 814 324 814 324 822 365 c 0,9,10
 830 405 830 405 830 448 c 1,11,-1
 830 448 l 1,12,13
 830 490 830 490 822 530 c 256,14,15
 814 570 814 570 798.5 607 c 128,-1,16
 783 644 783 644 761 677 c 0,17,18
 739 709 739 709 712 737 c 1,19,-1
 712 737 l 1,20,21
 711 738 711 738 710.5 739 c 128,-1,22
 710 740 710 740 709 740 c 1,23,-1
 709 740 l 1,24,25
 702 747 702 747 692.5 751.5 c 128,-1,26
 683 756 683 756 672 756 c 256,27,28
 661 756 661 756 651.5 751.5 c 128,-1,29
 642 747 642 747 635 740 c 1,30,-1
 635 740 l 1,31,32
 628 733 628 733 624 723.5 c 128,-1,33
 620 714 620 714 620 703 c 256,34,35
 620 692 620 692 624 682.5 c 128,-1,36
 628 673 628 673 635 666 c 1,37,-1
 635 666 l 1,38,39
 677 624 677 624 701 568 c 128,-1,40
 725 512 725 512 725 448 c 1,41,-1
 725 448 l 1,42,43
 725 384 725 384 701 328 c 128,-1,44
 677 272 677 272 635 230 c 1,45,-1
 635 230 l 1,46,47
 635 230 635 230 635 230 c 129,-1,48
 635 230 635 230 635 230 c 1,49,-1
 635 230 l 1,50,51
 628 223 628 223 624 213.5 c 128,-1,52
 620 204 620 204 620 193 c 256,53,54
 620 182 620 182 624 172.5 c 128,-1,55
 628 163 628 163 635 156 c 1,56,-1
 635 156 l 1,57,58
 642 149 642 149 651.5 144.5 c 128,-1,59
 661 140 661 140 672 140 c 256,60,61
 683 140 683 140 692.5 144.5 c 128,-1,62
 702 149 702 149 709 156 c 1,63,-1
 709 156 l 1,64,-1
 709 156 l 1,0,1
568 267 m 1,65,66
 603 302 603 302 623 348.5 c 128,-1,67
 643 395 643 395 643 448 c 1,68,-1
 643 448 l 1,69,70
 643 500 643 500 623.5 545.5 c 128,-1,71
 604 591 604 591 571 625 c 1,72,-1
 571 625 l 1,73,74
 570 626 570 626 569.5 627 c 128,-1,75
 569 628 569 628 568 629 c 1,76,-1
 568 629 l 1,77,78
 561 636 561 636 551.5 640 c 128,-1,79
 542 644 542 644 531 644 c 256,80,81
 520 644 520 644 510.5 640 c 128,-1,82
 501 636 501 636 494 629 c 1,83,-1
 494 629 l 1,84,85
 486 622 486 622 482 612.5 c 128,-1,86
 478 603 478 603 478 592 c 256,87,88
 478 581 478 581 482 571.5 c 128,-1,89
 486 562 486 562 494 555 c 1,90,-1
 494 555 l 1,91,-1
 493 555 l 1,92,93
 514 534 514 534 526 506.5 c 128,-1,94
 538 479 538 479 538 448 c 1,95,-1
 538 448 l 1,96,97
 538 417 538 417 526 389.5 c 128,-1,98
 514 362 514 362 494 342 c 1,99,-1
 494 342 l 1,100,101
 494 342 494 342 494 342 c 129,-1,102
 494 342 494 342 494 342 c 1,103,-1
 494 342 l 1,104,105
 486 334 486 334 482 324.5 c 128,-1,106
 478 315 478 315 478 304 c 0,107,108
 478 294 478 294 482 284 c 128,-1,109
 486 274 486 274 494 267 c 1,110,-1
 494 267 l 1,111,112
 501 260 501 260 510.5 256 c 128,-1,113
 520 252 520 252 531 252 c 256,114,115
 542 252 542 252 551.5 256 c 128,-1,116
 561 260 561 260 568 267 c 1,117,-1
 568 267 l 1,118,-1
 568 267 l 1,65,66
322 818 m 1,119,120
 313 818 313 818 306 814.5 c 128,-1,121
 299 811 299 811 294 805 c 1,122,-1
 294 805 l 1,123,-1
 162 650 l 1,124,-1
 36 650 l 2,125,126
 21 650 21 650 10.5 639.5 c 128,-1,127
 0 629 0 629 0 614 c 1,128,-1
 0 614 l 1,129,-1
 0 282 l 1,130,131
 0 282 0 282 0 282 c 129,-1,132
 0 282 0 282 0 282 c 1,133,134
 0 267 0 267 10.5 256.5 c 128,-1,135
 21 246 21 246 36 246 c 2,136,-1
 162 246 l 1,137,-1
 294 91 l 2,138,139
 299 86 299 86 306 82.5 c 128,-1,140
 313 79 313 79 322 79 c 2,141,-1
 356 79 l 1,142,143
 356 79 356 79 356 79 c 129,-1,144
 356 79 356 79 356 79 c 1,145,146
 371 79 371 79 381.5 89.5 c 128,-1,147
 392 100 392 100 392 115 c 2,148,-1
 392 781 l 2,149,150
 392 796 392 796 381.5 807 c 128,-1,151
 371 818 371 818 356 818 c 1,152,153
 356 818 356 818 356 818 c 129,-1,154
 356 818 356 818 356 818 c 1,155,-1
 322 818 l 1,156,-1
 322 818 l 1,119,120
EndSplineSet
EndChar

StartChar: uniE90F
Encoding: 59663 59663 18
Width: 1024
GlyphClass: 1
Flags: W
LayerCount: 2
Fore
SplineSet
857 44 m 1,0,1
 895 83 895 83 926 129 c 256,2,3
 957 175 957 175 979 226 c 128,-1,4
 1001 277 1001 277 1012 333 c 0,5,6
 1024 389 1024 389 1024 448 c 1,7,-1
 1024 448 l 1,8,9
 1024 507 1024 507 1012 562 c 0,10,11
 1001 618 1001 618 979.5 669 c 128,-1,12
 958 720 958 720 928 765 c 0,13,14
 897 811 897 811 859 849 c 1,15,-1
 859 849 l 1,16,17
 858 850 858 850 857.5 850.5 c 128,-1,18
 857 851 857 851 856 852 c 1,19,-1
 856 852 l 1,20,21
 849 859 849 859 839.5 863 c 128,-1,22
 830 867 830 867 819 867 c 256,23,24
 808 867 808 867 798.5 863 c 128,-1,25
 789 859 789 859 782 852 c 1,26,-1
 782 852 l 1,27,28
 775 845 775 845 771 835 c 128,-1,29
 767 825 767 825 767 815 c 0,30,31
 767 804 767 804 771 794 c 128,-1,32
 775 784 775 784 782 777 c 1,33,-1
 782 777 l 1,34,35
 782 777 782 777 782.5 777 c 128,-1,36
 783 777 783 777 783 777 c 1,37,-1
 783 777 l 1,38,39
 814 745 814 745 840 708 c 0,40,41
 865 671 865 671 882.5 629 c 128,-1,42
 900 587 900 587 909 542 c 0,43,44
 919 496 919 496 919 448 c 1,45,-1
 919 448 l 1,46,47
 919 400 919 400 909 354 c 0,48,49
 900 309 900 309 882.5 267 c 128,-1,50
 865 225 865 225 839 188 c 0,51,52
 814 150 814 150 782 119 c 1,53,-1
 782 119 l 1,54,55
 775 112 775 112 771 102 c 128,-1,56
 767 92 767 92 767 82 c 0,57,58
 767 71 767 71 771 61 c 128,-1,59
 775 51 775 51 782 44 c 1,60,-1
 782 44 l 1,61,62
 790 37 790 37 799.5 33 c 128,-1,63
 809 29 809 29 820 29 c 0,64,65
 830 29 830 29 840 33 c 128,-1,66
 850 37 850 37 857 44 c 1,67,-1
 857 44 l 1,68,-1
 857 44 l 1,0,1
709 156 m 1,69,70
 709 156 709 156 709.5 156 c 128,-1,71
 710 156 710 156 710 156 c 1,72,-1
 710 156 l 1,73,74
 738 184 738 184 760 217 c 256,75,76
 782 250 782 250 798 287 c 128,-1,77
 814 324 814 324 822 365 c 0,78,79
 830 405 830 405 830 448 c 1,80,-1
 830 448 l 1,81,82
 830 490 830 490 822 530 c 256,83,84
 814 570 814 570 798.5 607 c 128,-1,85
 783 644 783 644 761 677 c 0,86,87
 739 709 739 709 712 737 c 1,88,-1
 712 737 l 1,89,90
 711 738 711 738 710.5 739 c 128,-1,91
 710 740 710 740 709 740 c 1,92,-1
 709 740 l 1,93,94
 702 747 702 747 692.5 751.5 c 128,-1,95
 683 756 683 756 672 756 c 256,96,97
 661 756 661 756 651.5 751.5 c 128,-1,98
 642 747 642 747 635 740 c 1,99,-1
 635 740 l 1,100,101
 628 733 628 733 624 723.5 c 128,-1,102
 620 714 620 714 620 703 c 256,103,104
 620 692 620 692 624 682.5 c 128,-1,105
 628 673 628 673 635 666 c 1,106,-1
 635 666 l 1,107,108
 677 624 677 624 701 568 c 128,-1,109
 725 512 725 512 725 448 c 1,110,-1
 725 448 l 1,111,112
 725 384 725 384 701 328 c 128,-1,113
 677 272 677 272 635 230 c 1,114,-1
 635 230 l 1,115,116
 635 230 635 230 635 230 c 129,-1,117
 635 230 635 230 635 230 c 1,118,-1
 635 230 l 1,119,120
 628 223 628 223 624 213.5 c 128,-1,121
 620 204 620 204 620 193 c 256,122,123
 620 182 620 182 624 172.5 c 128,-1,124
 628 163 628 163 635 156 c 1,125,-1
 635 156 l 1,126,127
 642 149 642 149 651.5 144.5 c 128,-1,128
 661 140 661 140 672 140 c 256,129,130
 683 140 683 140 692.5 144.5 c 128,-1,131
 702 149 702 149 709 156 c 1,132,-1
 709 156 l 1,133,-1
 709 156 l 1,69,70
568 267 m 1,134,135
 603 302 603 302 623 348.5 c 128,-1,136
 643 395 643 395 643 448 c 1,137,-1
 643 448 l 1,138,139
 643 500 643 500 623.5 545.5 c 128,-1,140
 604 591 604 591 571 625 c 1,141,-1
 571 625 l 1,142,143
 570 626 570 626 569.5 627 c 128,-1,144
 569 628 569 628 568 629 c 1,145,-1
 568 629 l 1,146,147
 561 636 561 636 551.5 640 c 128,-1,148
 542 644 542 644 531 644 c 256,149,150
 520 644 520 644 510.5 640 c 128,-1,151
 501 636 501 636 494 629 c 1,152,-1
 494 629 l 1,153,154
 486 622 486 622 482 612.5 c 128,-1,155
 478 603 478 603 478 592 c 256,156,157
 478 581 478 581 482 571.5 c 128,-1,158
 486 562 486 562 494 555 c 1,159,-1
 494 555 l 1,160,-1
 493 555 l 1,161,162
 514 534 514 534 526 506.5 c 128,-1,163
 538 479 538 479 538 448 c 1,164,-1
 538 448 l 1,165,166
 538 417 538 417 526 389.5 c 128,-1,167
 514 362 514 362 494 342 c 1,168,-1
 494 342 l 1,169,170
 494 342 494 342 494 342 c 129,-1,171
 494 342 494 342 494 342 c 1,172,-1
 494 342 l 1,173,174
 486 334 486 334 482 324.5 c 128,-1,175
 478 315 478 315 478 304 c 0,176,177
 478 294 478 294 482 284 c 128,-1,178
 486 274 486 274 494 267 c 1,179,-1
 494 267 l 1,180,181
 501 260 501 260 510.5 256 c 128,-1,182
 520 252 520 252 531 252 c 256,183,184
 542 252 542 252 551.5 256 c 128,-1,185
 561 260 561 260 568 267 c 1,186,-1
 568 267 l 1,187,-1
 568 267 l 1,134,135
322 818 m 1,188,189
 313 818 313 818 306 814.5 c 128,-1,190
 299 811 299 811 294 805 c 1,191,-1
 294 805 l 1,192,-1
 162 650 l 1,193,-1
 36 650 l 2,194,195
 21 650 21 650 10.5 639.5 c 128,-1,196
 0 629 0 629 0 614 c 1,197,-1
 0 614 l 1,198,-1
 0 282 l 1,199,200
 0 282 0 282 0 282 c 129,-1,201
 0 282 0 282 0 282 c 1,202,203
 0 267 0 267 10.5 256.5 c 128,-1,204
 21 246 21 246 36 246 c 2,205,-1
 162 246 l 1,206,-1
 294 91 l 2,207,208
 299 86 299 86 306 82.5 c 128,-1,209
 313 79 313 79 322 79 c 2,210,-1
 356 79 l 1,211,212
 356 79 356 79 356 79 c 129,-1,213
 356 79 356 79 356 79 c 1,214,215
 371 79 371 79 381.5 89.5 c 128,-1,216
 392 100 392 100 392 115 c 2,217,-1
 392 781 l 2,218,219
 392 796 392 796 381.5 807 c 128,-1,220
 371 818 371 818 356 818 c 1,221,222
 356 818 356 818 356 818 c 129,-1,223
 356 818 356 818 356 818 c 1,224,-1
 322 818 l 1,225,-1
 322 818 l 1,188,189
EndSplineSet
EndChar

StartChar: uniE910
Encoding: 59664 59664 19
Width: 1024
GlyphClass: 1
Flags: W
LayerCount: 2
Fore
SplineSet
857 44 m 1,0,1
 895 83 895 83 926 129 c 256,2,3
 957 175 957 175 979 226 c 128,-1,4
 1001 277 1001 277 1012 333 c 0,5,6
 1024 389 1024 389 1024 448 c 1,7,-1
 1024 448 l 1,8,9
 1024 507 1024 507 1012 562 c 0,10,11
 1001 618 1001 618 979.5 669 c 128,-1,12
 958 720 958 720 928 765 c 0,13,14
 897 811 897 811 859 849 c 1,15,-1
 859 849 l 1,16,17
 858 850 858 850 857.5 850.5 c 128,-1,18
 857 851 857 851 856 852 c 1,19,-1
 856 852 l 1,20,21
 849 859 849 859 839.5 863 c 128,-1,22
 830 867 830 867 819 867 c 256,23,24
 808 867 808 867 798.5 863 c 128,-1,25
 789 859 789 859 782 852 c 1,26,-1
 782 852 l 1,27,28
 775 845 775 845 771 835 c 128,-1,29
 767 825 767 825 767 815 c 0,30,31
 767 804 767 804 771 794 c 128,-1,32
 775 784 775 784 782 777 c 1,33,-1
 782 777 l 1,34,35
 782 777 782 777 782.5 777 c 128,-1,36
 783 777 783 777 783 777 c 1,37,-1
 783 777 l 1,38,39
 814 745 814 745 840 708 c 0,40,41
 865 671 865 671 882.5 629 c 128,-1,42
 900 587 900 587 909 542 c 0,43,44
 919 496 919 496 919 448 c 1,45,-1
 919 448 l 1,46,47
 919 400 919 400 909 354 c 0,48,49
 900 309 900 309 882.5 267 c 128,-1,50
 865 225 865 225 839 188 c 0,51,52
 814 150 814 150 782 119 c 1,53,-1
 782 119 l 1,54,55
 775 112 775 112 771 102 c 128,-1,56
 767 92 767 92 767 82 c 0,57,58
 767 71 767 71 771 61 c 128,-1,59
 775 51 775 51 782 44 c 1,60,-1
 782 44 l 1,61,62
 790 37 790 37 799.5 33 c 128,-1,63
 809 29 809 29 820 29 c 0,64,65
 830 29 830 29 840 33 c 128,-1,66
 850 37 850 37 857 44 c 1,67,-1
 857 44 l 1,68,-1
 857 44 l 1,0,1
709 156 m 1,69,70
 709 156 709 156 709.5 156 c 128,-1,71
 710 156 710 156 710 156 c 1,72,-1
 710 156 l 1,73,74
 738 184 738 184 760 217 c 256,75,76
 782 250 782 250 798 287 c 128,-1,77
 814 324 814 324 822 365 c 0,78,79
 830 405 830 405 830 448 c 1,80,-1
 830 448 l 1,81,82
 830 490 830 490 822 530 c 256,83,84
 814 570 814 570 798.5 607 c 128,-1,85
 783 644 783 644 761 677 c 0,86,87
 739 709 739 709 712 737 c 1,88,-1
 712 737 l 1,89,90
 711 738 711 738 710.5 739 c 128,-1,91
 710 740 710 740 709 740 c 1,92,-1
 709 740 l 1,93,94
 702 747 702 747 692.5 751.5 c 128,-1,95
 683 756 683 756 672 756 c 256,96,97
 661 756 661 756 651.5 751.5 c 128,-1,98
 642 747 642 747 635 740 c 1,99,-1
 635 740 l 1,100,101
 628 733 628 733 624 723.5 c 128,-1,102
 620 714 620 714 620 703 c 256,103,104
 620 692 620 692 624 682.5 c 128,-1,105
 628 673 628 673 635 666 c 1,106,-1
 635 666 l 1,107,108
 677 624 677 624 701 568 c 128,-1,109
 725 512 725 512 725 448 c 1,110,-1
 725 448 l 1,111,112
 725 384 725 384 701 328 c 128,-1,113
 677 272 677 272 635 230 c 1,114,-1
 635 230 l 1,115,116
 635 230 635 230 635 230 c 129,-1,117
 635 230 635 230 635 230 c 1,118,-1
 635 230 l 1,119,120
 628 223 628 223 624 213.5 c 128,-1,121
 620 204 620 204 620 193 c 256,122,123
 620 182 620 182 624 172.5 c 128,-1,124
 628 163 628 163 635 156 c 1,125,-1
 635 156 l 1,126,127
 642 149 642 149 651.5 144.5 c 128,-1,128
 661 140 661 140 672 140 c 256,129,130
 683 140 683 140 692.5 144.5 c 128,-1,131
 702 149 702 149 709 156 c 1,132,-1
 709 156 l 1,133,-1
 709 156 l 1,69,70
568 267 m 1,134,135
 603 302 603 302 623 348.5 c 128,-1,136
 643 395 643 395 643 448 c 1,137,-1
 643 448 l 1,138,139
 643 500 643 500 623.5 545.5 c 128,-1,140
 604 591 604 591 571 625 c 1,141,-1
 571 625 l 1,142,143
 570 626 570 626 569.5 627 c 128,-1,144
 569 628 569 628 568 629 c 1,145,-1
 568 629 l 1,146,147
 561 636 561 636 551.5 640 c 128,-1,148
 542 644 542 644 531 644 c 256,149,150
 520 644 520 644 510.5 640 c 128,-1,151
 501 636 501 636 494 629 c 1,152,-1
 494 629 l 1,153,154
 486 622 486 622 482 612.5 c 128,-1,155
 478 603 478 603 478 592 c 256,156,157
 478 581 478 581 482 571.5 c 128,-1,158
 486 562 486 562 494 555 c 1,159,-1
 494 555 l 1,160,-1
 493 555 l 1,161,162
 514 534 514 534 526 506.5 c 128,-1,163
 538 479 538 479 538 448 c 1,164,-1
 538 448 l 1,165,166
 538 417 538 417 526 389.5 c 128,-1,167
 514 362 514 362 494 342 c 1,168,-1
 494 342 l 1,169,170
 494 342 494 342 494 342 c 129,-1,171
 494 342 494 342 494 342 c 1,172,-1
 494 342 l 1,173,174
 486 334 486 334 482 324.5 c 128,-1,175
 478 315 478 315 478 304 c 0,176,177
 478 294 478 294 482 284 c 128,-1,178
 486 274 486 274 494 267 c 1,179,-1
 494 267 l 1,180,181
 501 260 501 260 510.5 256 c 128,-1,182
 520 252 520 252 531 252 c 256,183,184
 542 252 542 252 551.5 256 c 128,-1,185
 561 260 561 260 568 267 c 1,186,-1
 568 267 l 1,187,-1
 568 267 l 1,134,135
322 818 m 1,188,189
 313 818 313 818 306 814.5 c 128,-1,190
 299 811 299 811 294 805 c 1,191,-1
 294 805 l 1,192,-1
 162 650 l 1,193,-1
 36 650 l 2,194,195
 21 650 21 650 10.5 639.5 c 128,-1,196
 0 629 0 629 0 614 c 1,197,-1
 0 614 l 1,198,-1
 0 282 l 1,199,200
 0 282 0 282 0 282 c 129,-1,201
 0 282 0 282 0 282 c 1,202,203
 0 267 0 267 10.5 256.5 c 128,-1,204
 21 246 21 246 36 246 c 2,205,-1
 162 246 l 1,206,-1
 294 91 l 2,207,208
 299 86 299 86 306 82.5 c 128,-1,209
 313 79 313 79 322 79 c 2,210,-1
 356 79 l 1,211,212
 356 79 356 79 356 79 c 129,-1,213
 356 79 356 79 356 79 c 1,214,215
 371 79 371 79 381.5 89.5 c 128,-1,216
 392 100 392 100 392 115 c 2,217,-1
 392 781 l 2,218,219
 392 796 392 796 381.5 807 c 128,-1,220
 371 818 371 818 356 818 c 1,221,222
 356 818 356 818 356 818 c 129,-1,223
 356 818 356 818 356 818 c 1,224,-1
 322 818 l 1,225,-1
 322 818 l 1,188,189
EndSplineSet
EndChar

StartChar: uniE911
Encoding: 59665 59665 20
Width: 1024
GlyphClass: 1
Flags: W
LayerCount: 2
Fore
SplineSet
322 818 m 1,0,1
 313 818 313 818 306 814.5 c 128,-1,2
 299 811 299 811 294 805 c 1,3,-1
 294 805 l 1,4,-1
 162 650 l 1,5,-1
 36 650 l 2,6,7
 21 650 21 650 10.5 639.5 c 128,-1,8
 0 629 0 629 0 614 c 1,9,-1
 0 614 l 1,10,-1
 0 282 l 1,11,12
 0 282 0 282 0 282 c 129,-1,13
 0 282 0 282 0 282 c 1,14,15
 0 267 0 267 10.5 256.5 c 128,-1,16
 21 246 21 246 36 246 c 2,17,-1
 162 246 l 1,18,-1
 294 91 l 2,19,20
 299 86 299 86 306 82.5 c 128,-1,21
 313 79 313 79 322 79 c 2,22,-1
 356 79 l 1,23,24
 356 79 356 79 356 79 c 129,-1,25
 356 79 356 79 356 79 c 1,26,27
 371 79 371 79 381.5 89.5 c 128,-1,28
 392 100 392 100 392 115 c 2,29,-1
 392 781 l 2,30,31
 392 796 392 796 381.5 807 c 128,-1,32
 371 818 371 818 356 818 c 1,33,34
 356 818 356 818 356 818 c 129,-1,35
 356 818 356 818 356 818 c 1,36,-1
 322 818 l 1,37,-1
 322 818 l 1,0,1
582 700 m 1,38,39
 570 700 570 700 558.5 695.5 c 128,-1,40
 547 691 547 691 538 682 c 0,41,42
 520 664 520 664 520 637.5 c 128,-1,43
 520 611 520 611 538 593 c 2,44,-1
 683 448 l 1,45,-1
 538 302 l 2,46,47
 520 284 520 284 520 258 c 128,-1,48
 520 232 520 232 538 214 c 256,49,50
 556 196 556 196 582 196 c 128,-1,51
 608 196 608 196 626 214 c 2,52,-1
 772 359 l 1,53,-1
 917 214 l 2,54,55
 935 196 935 196 961.5 196 c 128,-1,56
 988 196 988 196 1006 214 c 256,57,58
 1024 232 1024 232 1024 258 c 128,-1,59
 1024 284 1024 284 1006 302 c 2,60,-1
 861 448 l 1,61,-1
 1006 593 l 2,62,63
 1024 611 1024 611 1024 637.5 c 128,-1,64
 1024 664 1024 664 1006 682 c 256,65,66
 988 700 988 700 961.5 700 c 128,-1,67
 935 700 935 700 917 682 c 2,68,-1
 772 536 l 1,69,-1
 626 682 l 2,70,71
 617 691 617 691 605.5 695.5 c 128,-1,72
 594 700 594 700 582 700 c 1,73,-1
 582 700 l 1,38,39
EndSplineSet
EndChar

StartChar: uniE912
Encoding: 59666 59666 21
Width: 1024
GlyphClass: 1
Flags: W
LayerCount: 2
Fore
SplineSet
605 176 m 0,0,1
 605 139 605 139 578 112 c 128,-1,2
 551 85 551 85 513 85 c 256,3,4
 475 85 475 85 448.5 112 c 128,-1,5
 422 139 422 139 422 176 c 0,6,7
 422 214 422 214 448.5 241 c 128,-1,8
 475 268 475 268 513 268 c 256,9,10
 551 268 551 268 578 241 c 128,-1,11
 605 214 605 214 605 176 c 0,0,1
EndSplineSet
EndChar

StartChar: uniE913
Encoding: 59667 59667 22
Width: 1024
GlyphClass: 1
Flags: W
LayerCount: 2
Fore
SplineSet
513 442 m 1,0,1
 453 442 453 442 399.5 419 c 128,-1,2
 346 396 346 396 307 356 c 1,3,-1
 307 356 l 1,4,-1
 307 356 l 1,5,6
 299 348 299 348 294 337.5 c 128,-1,7
 289 327 289 327 289 314 c 1,8,-1
 289 314 l 1,9,10
 289 314 289 314 289 314 c 129,-1,11
 289 314 289 314 289 314 c 1,12,13
 289 290 289 290 306.5 273 c 128,-1,14
 324 256 324 256 348 256 c 1,15,16
 348 256 348 256 348 256 c 129,-1,17
 348 256 348 256 348 256 c 1,18,-1
 348 256 l 1,19,20
 362 256 362 256 374.5 262 c 128,-1,21
 387 268 387 268 395 279 c 1,22,-1
 395 279 l 1,23,24
 418 300 418 300 448.5 312.5 c 128,-1,25
 479 325 479 325 513 325 c 0,26,27
 548 325 548 325 578.5 312.5 c 128,-1,28
 609 300 609 300 632 279 c 0,29,30
 640 268 640 268 652 262 c 128,-1,31
 664 256 664 256 679 256 c 1,32,-1
 679 256 l 1,33,34
 679 256 679 256 679 256 c 129,-1,35
 679 256 679 256 679 256 c 1,36,37
 703 256 703 256 720 273 c 128,-1,38
 737 290 737 290 737 314 c 1,39,40
 737 314 737 314 737 314 c 129,-1,41
 737 314 737 314 737 314 c 1,42,-1
 737 314 l 1,43,44
 737 327 737 327 732.5 337.5 c 128,-1,45
 728 348 728 348 720 356 c 1,46,-1
 720 356 l 1,47,48
 720 356 720 356 720 356 c 129,-1,49
 720 356 720 356 720 357 c 1,50,51
 720 357 720 357 719.5 357 c 128,-1,52
 719 357 719 357 719 357 c 1,53,-1
 719 357 l 1,54,55
 680 396 680 396 626.5 419 c 128,-1,56
 573 442 573 442 513 442 c 1,57,-1
 513 442 l 1,0,1
513 268 m 1,58,59
 475 268 475 268 448.5 241 c 128,-1,60
 422 214 422 214 422 176 c 1,61,-1
 422 176 l 1,62,63
 422 139 422 139 448.5 112 c 128,-1,64
 475 85 475 85 513 85 c 1,65,-1
 513 85 l 1,66,67
 551 85 551 85 578 112 c 128,-1,68
 605 139 605 139 605 176 c 1,69,-1
 605 176 l 1,70,71
 605 214 605 214 578 241 c 128,-1,72
 551 268 551 268 513 268 c 1,73,-1
 513 268 l 1,58,59
EndSplineSet
EndChar

StartChar: uniE914
Encoding: 59668 59668 23
Width: 1024
GlyphClass: 1
Flags: W
LayerCount: 2
Fore
SplineSet
513 616 m 1,0,1
 465 616 465 616 421 607 c 0,2,3
 376 598 376 598 335 580.5 c 128,-1,4
 294 563 294 563 257 538 c 0,5,6
 221 513 221 513 190 482 c 1,7,-1
 190 482 l 1,8,9
 181 474 181 474 176 463 c 128,-1,10
 171 452 171 452 171 439 c 1,11,-1
 171 439 l 1,12,13
 171 439 171 439 171 439 c 129,-1,14
 171 439 171 439 171 439 c 1,15,16
 171 415 171 415 188.5 397.5 c 128,-1,17
 206 380 206 380 230 380 c 1,18,19
 230 380 230 380 230 380 c 129,-1,20
 230 380 230 380 230 380 c 1,21,-1
 230 380 l 1,22,23
 244 380 244 380 256.5 386.5 c 128,-1,24
 269 393 269 393 277 404 c 1,25,-1
 277 404 l 1,26,27
 323 448 323 448 383.5 473.5 c 128,-1,28
 444 499 444 499 513 499 c 0,29,30
 581 499 581 499 641 474 c 128,-1,31
 701 449 701 449 747 405 c 0,32,33
 755 395 755 395 767.5 388.5 c 128,-1,34
 780 382 780 382 794 382 c 1,35,-1
 794 382 l 1,36,37
 794 382 794 382 794 382 c 129,-1,38
 794 382 794 382 794 382 c 1,39,40
 818 382 818 382 835.5 399 c 128,-1,41
 853 416 853 416 853 441 c 1,42,43
 853 441 853 441 853 441 c 129,-1,44
 853 441 853 441 853 441 c 1,45,-1
 853 441 l 1,46,47
 853 453 853 453 848.5 463.5 c 128,-1,48
 844 474 844 474 836 482 c 1,49,-1
 836 482 l 1,50,51
 836 482 836 482 836 482 c 129,-1,52
 836 482 836 482 836 482 c 257,53,54
 836 482 836 482 836 482 c 129,-1,55
 836 482 836 482 836 482 c 1,56,-1
 836 482 l 1,57,58
 836 482 836 482 835.5 482 c 128,-1,59
 835 482 835 482 835 482 c 257,60,61
 835 482 835 482 835 482.5 c 128,-1,62
 835 483 835 483 835 483 c 1,63,-1
 835 483 l 1,64,65
 804 514 804 514 767 538 c 0,66,67
 731 563 731 563 690 580.5 c 128,-1,68
 649 598 649 598 604 607 c 0,69,70
 560 616 560 616 513 616 c 1,71,-1
 513 616 l 1,72,-1
 513 616 l 1,0,1
513 442 m 1,73,74
 453 442 453 442 399.5 419 c 128,-1,75
 346 396 346 396 307 356 c 1,76,-1
 307 356 l 1,77,-1
 307 356 l 1,78,79
 299 348 299 348 294 337.5 c 128,-1,80
 289 327 289 327 289 314 c 1,81,-1
 289 314 l 1,82,83
 289 314 289 314 289 314 c 129,-1,84
 289 314 289 314 289 314 c 1,85,86
 289 290 289 290 306.5 273 c 128,-1,87
 324 256 324 256 348 256 c 1,88,89
 348 256 348 256 348 256 c 129,-1,90
 348 256 348 256 348 256 c 1,91,-1
 348 256 l 1,92,93
 362 256 362 256 374.5 262 c 128,-1,94
 387 268 387 268 395 279 c 1,95,-1
 395 279 l 1,96,97
 418 300 418 300 448.5 312.5 c 128,-1,98
 479 325 479 325 513 325 c 0,99,100
 548 325 548 325 578.5 312.5 c 128,-1,101
 609 300 609 300 632 279 c 0,102,103
 640 268 640 268 652 262 c 128,-1,104
 664 256 664 256 679 256 c 1,105,-1
 679 256 l 1,106,107
 679 256 679 256 679 256 c 129,-1,108
 679 256 679 256 679 256 c 1,109,110
 703 256 703 256 720 273 c 128,-1,111
 737 290 737 290 737 314 c 1,112,113
 737 314 737 314 737 314 c 129,-1,114
 737 314 737 314 737 314 c 1,115,-1
 737 314 l 1,116,117
 737 327 737 327 732.5 337.5 c 128,-1,118
 728 348 728 348 720 356 c 1,119,-1
 720 356 l 1,120,121
 720 356 720 356 720 356 c 129,-1,122
 720 356 720 356 720 356 c 257,123,124
 720 356 720 356 720 356.5 c 128,-1,125
 720 357 720 357 720 357 c 257,126,127
 720 357 720 357 719.5 357 c 128,-1,128
 719 357 719 357 719 357 c 1,129,-1
 719 357 l 1,130,131
 680 396 680 396 626.5 419 c 128,-1,132
 573 442 573 442 513 442 c 1,133,-1
 513 442 l 1,73,74
513 268 m 1,134,135
 475 268 475 268 448.5 241 c 128,-1,136
 422 214 422 214 422 176 c 1,137,-1
 422 176 l 1,138,139
 422 139 422 139 448.5 112 c 128,-1,140
 475 85 475 85 513 85 c 1,141,-1
 513 85 l 1,142,143
 551 85 551 85 578 112 c 128,-1,144
 605 139 605 139 605 176 c 1,145,-1
 605 176 l 1,146,147
 605 214 605 214 578 241 c 128,-1,148
 551 268 551 268 513 268 c 1,149,-1
 513 268 l 1,134,135
EndSplineSet
EndChar

StartChar: uniE915
Encoding: 59669 59669 24
Width: 1024
GlyphClass: 1
Flags: W
LayerCount: 2
Fore
SplineSet
512 790 m 1,0,1
 448 790 448 790 387 777 c 0,2,3
 326 765 326 765 270 741 c 128,-1,4
 214 717 214 717 164 683 c 0,5,6
 113 649 113 649 71 607 c 1,7,-1
 71 607 l 1,8,-1
 71 607 l 1,9,10
 63 599 63 599 58 588 c 128,-1,11
 53 577 53 577 53 564 c 1,12,-1
 53 564 l 1,13,14
 53 540 53 540 70 522.5 c 128,-1,15
 87 505 87 505 111 505 c 1,16,17
 111 505 111 505 111 505 c 129,-1,18
 111 505 111 505 111 505 c 1,19,-1
 111 505 l 1,20,21
 126 505 126 505 138 511.5 c 128,-1,22
 150 518 150 518 158 529 c 1,23,-1
 159 529 l 1,24,25
 193 562 193 562 233 589 c 256,26,27
 273 616 273 616 318 634.5 c 128,-1,28
 363 653 363 653 412 663 c 256,29,30
 461 673 461 673 512 673 c 0,31,32
 565 673 565 673 615 662 c 0,33,34
 665 652 665 652 710.5 633 c 128,-1,35
 756 614 756 614 796 586 c 0,36,37
 837 559 837 559 871 524 c 1,38,39
 871 524 871 524 871 524 c 129,-1,40
 871 524 871 524 871 524 c 257,41,42
 871 524 871 524 871 524 c 129,-1,43
 871 524 871 524 871 524 c 1,44,-1
 871 524 l 1,45,46
 879 516 879 516 890 511.5 c 128,-1,47
 901 507 901 507 913 507 c 1,48,-1
 913 507 l 1,49,50
 913 507 913 507 913 507 c 129,-1,51
 913 507 913 507 913 507 c 1,52,53
 937 507 937 507 954 524 c 128,-1,54
 971 541 971 541 971 566 c 1,55,56
 971 566 971 566 971 566 c 129,-1,57
 971 566 971 566 971 566 c 1,58,-1
 971 566 l 1,59,60
 971 580 971 580 964.5 592.5 c 128,-1,61
 958 605 958 605 947 613 c 1,62,-1
 947 613 l 1,63,64
 905 654 905 654 855 687 c 0,65,66
 806 720 806 720 751 743 c 128,-1,67
 696 766 696 766 636 778 c 256,68,69
 576 790 576 790 512 790 c 1,70,-1
 512 790 l 1,0,1
513 616 m 1,71,72
 465 616 465 616 421 607 c 0,73,74
 376 598 376 598 335 580.5 c 128,-1,75
 294 563 294 563 257 538 c 0,76,77
 221 513 221 513 190 482 c 1,78,-1
 190 482 l 1,79,80
 181 474 181 474 176 463 c 128,-1,81
 171 452 171 452 171 439 c 1,82,-1
 171 439 l 1,83,84
 171 439 171 439 171 439 c 129,-1,85
 171 439 171 439 171 439 c 1,86,87
 171 415 171 415 188.5 397.5 c 128,-1,88
 206 380 206 380 230 380 c 1,89,90
 230 380 230 380 230 380 c 129,-1,91
 230 380 230 380 230 380 c 1,92,-1
 230 380 l 1,93,94
 244 380 244 380 256.5 386.5 c 128,-1,95
 269 393 269 393 277 404 c 1,96,-1
 277 404 l 1,97,98
 323 448 323 448 383.5 473.5 c 128,-1,99
 444 499 444 499 513 499 c 0,100,101
 581 499 581 499 641 474 c 128,-1,102
 701 449 701 449 747 405 c 0,103,104
 755 395 755 395 767.5 388.5 c 128,-1,105
 780 382 780 382 794 382 c 1,106,-1
 794 382 l 1,107,108
 794 382 794 382 794 382 c 129,-1,109
 794 382 794 382 794 382 c 1,110,111
 818 382 818 382 835.5 399 c 128,-1,112
 853 416 853 416 853 441 c 1,113,114
 853 441 853 441 853 441 c 129,-1,115
 853 441 853 441 853 441 c 1,116,-1
 853 441 l 1,117,118
 853 453 853 453 848.5 463.5 c 128,-1,119
 844 474 844 474 836 482 c 1,120,-1
 836 482 l 1,121,122
 836 482 836 482 836 482 c 129,-1,123
 836 482 836 482 836 482 c 257,124,125
 836 482 836 482 836 482 c 129,-1,126
 836 482 836 482 836 482 c 1,127,-1
 836 482 l 1,128,129
 836 482 836 482 835.5 482 c 128,-1,130
 835 482 835 482 835 482 c 257,131,132
 835 482 835 482 835 482.5 c 128,-1,133
 835 483 835 483 835 483 c 1,134,-1
 835 483 l 1,135,136
 804 514 804 514 767 538 c 0,137,138
 731 563 731 563 690 580.5 c 128,-1,139
 649 598 649 598 604 607 c 0,140,141
 560 616 560 616 513 616 c 1,142,-1
 513 616 l 1,143,-1
 513 616 l 1,71,72
513 442 m 1,144,145
 453 442 453 442 399.5 419 c 128,-1,146
 346 396 346 396 307 356 c 1,147,-1
 307 356 l 1,148,-1
 307 356 l 1,149,150
 299 348 299 348 294 337.5 c 128,-1,151
 289 327 289 327 289 314 c 1,152,-1
 289 314 l 1,153,154
 289 314 289 314 289 314 c 129,-1,155
 289 314 289 314 289 314 c 1,156,157
 289 290 289 290 306.5 273 c 128,-1,158
 324 256 324 256 348 256 c 1,159,160
 348 256 348 256 348 256 c 129,-1,161
 348 256 348 256 348 256 c 1,162,-1
 348 256 l 1,163,164
 362 256 362 256 374.5 262 c 128,-1,165
 387 268 387 268 395 279 c 1,166,-1
 395 279 l 1,167,168
 418 300 418 300 448.5 312.5 c 128,-1,169
 479 325 479 325 513 325 c 0,170,171
 548 325 548 325 578.5 312.5 c 128,-1,172
 609 300 609 300 632 279 c 0,173,174
 640 268 640 268 652 262 c 128,-1,175
 664 256 664 256 679 256 c 1,176,-1
 679 256 l 1,177,178
 679 256 679 256 679 256 c 129,-1,179
 679 256 679 256 679 256 c 1,180,181
 703 256 703 256 720 273 c 128,-1,182
 737 290 737 290 737 314 c 1,183,184
 737 314 737 314 737 314 c 129,-1,185
 737 314 737 314 737 314 c 1,186,-1
 737 314 l 1,187,188
 737 327 737 327 732.5 337.5 c 128,-1,189
 728 348 728 348 720 356 c 1,190,-1
 720 356 l 1,191,192
 720 356 720 356 720 356 c 129,-1,193
 720 356 720 356 720 356 c 257,194,195
 720 356 720 356 720 356.5 c 128,-1,196
 720 357 720 357 720 357 c 257,197,198
 720 357 720 357 719.5 357 c 128,-1,199
 719 357 719 357 719 357 c 1,200,-1
 719 357 l 1,201,202
 680 396 680 396 626.5 419 c 128,-1,203
 573 442 573 442 513 442 c 1,204,-1
 513 442 l 1,144,145
513 268 m 1,205,206
 475 268 475 268 448.5 241 c 128,-1,207
 422 214 422 214 422 176 c 1,208,-1
 422 176 l 1,209,210
 422 139 422 139 448.5 112 c 128,-1,211
 475 85 475 85 513 85 c 1,212,-1
 513 85 l 1,213,214
 551 85 551 85 578 112 c 128,-1,215
 605 139 605 139 605 176 c 1,216,-1
 605 176 l 1,217,218
 605 214 605 214 578 241 c 128,-1,219
 551 268 551 268 513 268 c 1,220,-1
 513 268 l 1,205,206
EndSplineSet
EndChar

StartChar: uniE916
Encoding: 59670 59670 25
Width: 1024
GlyphClass: 1
Flags: W
LayerCount: 2
Fore
SplineSet
512 790 m 1,0,1
 448 790 448 790 387 777 c 0,2,3
 326 765 326 765 270 741 c 128,-1,4
 214 717 214 717 164 683 c 0,5,6
 113 649 113 649 71 607 c 1,7,-1
 71 607 l 1,8,-1
 71 607 l 1,9,10
 63 599 63 599 58 588 c 128,-1,11
 53 577 53 577 53 564 c 1,12,-1
 53 564 l 1,13,14
 53 540 53 540 70 522.5 c 128,-1,15
 87 505 87 505 111 505 c 1,16,17
 111 505 111 505 111 505 c 129,-1,18
 111 505 111 505 111 505 c 1,19,-1
 111 505 l 1,20,21
 126 505 126 505 138 511.5 c 128,-1,22
 150 518 150 518 158 529 c 1,23,-1
 159 529 l 1,24,25
 193 562 193 562 233 589 c 256,26,27
 273 616 273 616 318 634.5 c 128,-1,28
 363 653 363 653 412 663 c 256,29,30
 461 673 461 673 512 673 c 0,31,32
 565 673 565 673 615 662 c 0,33,34
 665 652 665 652 710.5 633 c 128,-1,35
 756 614 756 614 796 586 c 0,36,37
 837 559 837 559 871 524 c 1,38,39
 871 524 871 524 871 524 c 129,-1,40
 871 524 871 524 871 524 c 257,41,42
 871 524 871 524 871 524 c 129,-1,43
 871 524 871 524 871 524 c 1,44,-1
 871 524 l 1,45,46
 879 516 879 516 890 511.5 c 128,-1,47
 901 507 901 507 913 507 c 1,48,-1
 913 507 l 1,49,50
 913 507 913 507 913 507 c 129,-1,51
 913 507 913 507 913 507 c 1,52,53
 937 507 937 507 954 524 c 128,-1,54
 971 541 971 541 971 566 c 1,55,56
 971 566 971 566 971 566 c 129,-1,57
 971 566 971 566 971 566 c 1,58,-1
 971 566 l 1,59,60
 971 580 971 580 964.5 592.5 c 128,-1,61
 958 605 958 605 947 613 c 1,62,-1
 947 613 l 1,63,64
 905 654 905 654 855 687 c 0,65,66
 806 720 806 720 751 743 c 128,-1,67
 696 766 696 766 636 778 c 256,68,69
 576 790 576 790 512 790 c 1,70,-1
 512 790 l 1,0,1
513 616 m 1,71,72
 465 616 465 616 421 607 c 0,73,74
 376 598 376 598 335 580.5 c 128,-1,75
 294 563 294 563 257 538 c 0,76,77
 221 513 221 513 190 482 c 1,78,-1
 190 482 l 1,79,80
 181 474 181 474 176 463 c 128,-1,81
 171 452 171 452 171 439 c 1,82,-1
 171 439 l 1,83,84
 171 439 171 439 171 439 c 129,-1,85
 171 439 171 439 171 439 c 1,86,87
 171 415 171 415 188.5 397.5 c 128,-1,88
 206 380 206 380 230 380 c 1,89,90
 230 380 230 380 230 380 c 129,-1,91
 230 380 230 380 230 380 c 1,92,-1
 230 380 l 1,93,94
 244 380 244 380 256.5 386.5 c 128,-1,95
 269 393 269 393 277 404 c 1,96,-1
 277 404 l 1,97,98
 323 448 323 448 383.5 473.5 c 128,-1,99
 444 499 444 499 513 499 c 0,100,101
 581 499 581 499 641 474 c 128,-1,102
 701 449 701 449 747 405 c 0,103,104
 755 395 755 395 767.5 388.5 c 128,-1,105
 780 382 780 382 794 382 c 1,106,-1
 794 382 l 1,107,108
 794 382 794 382 794 382 c 129,-1,109
 794 382 794 382 794 382 c 1,110,111
 818 382 818 382 835.5 399 c 128,-1,112
 853 416 853 416 853 441 c 1,113,114
 853 441 853 441 853 441 c 129,-1,115
 853 441 853 441 853 441 c 1,116,-1
 853 441 l 1,117,118
 853 453 853 453 848.5 463.5 c 128,-1,119
 844 474 844 474 836 482 c 1,120,-1
 836 482 l 1,121,122
 836 482 836 482 836 482 c 129,-1,123
 836 482 836 482 836 482 c 257,124,125
 836 482 836 482 836 482 c 129,-1,126
 836 482 836 482 836 482 c 1,127,-1
 836 482 l 1,128,129
 836 482 836 482 835.5 482 c 128,-1,130
 835 482 835 482 835 482 c 257,131,132
 835 482 835 482 835 482.5 c 128,-1,133
 835 483 835 483 835 483 c 1,134,-1
 835 483 l 1,135,136
 804 514 804 514 767 538 c 0,137,138
 731 563 731 563 690 580.5 c 128,-1,139
 649 598 649 598 604 607 c 0,140,141
 560 616 560 616 513 616 c 1,142,-1
 513 616 l 1,143,-1
 513 616 l 1,71,72
513 442 m 1,144,145
 453 442 453 442 399.5 419 c 128,-1,146
 346 396 346 396 307 356 c 1,147,-1
 307 356 l 1,148,-1
 307 356 l 1,149,150
 299 348 299 348 294 337.5 c 128,-1,151
 289 327 289 327 289 314 c 1,152,-1
 289 314 l 1,153,154
 289 314 289 314 289 314 c 129,-1,155
 289 314 289 314 289 314 c 1,156,157
 289 290 289 290 306.5 273 c 128,-1,158
 324 256 324 256 348 256 c 1,159,160
 348 256 348 256 348 256 c 129,-1,161
 348 256 348 256 348 256 c 1,162,-1
 348 256 l 1,163,164
 362 256 362 256 374.5 262 c 128,-1,165
 387 268 387 268 395 279 c 1,166,-1
 395 279 l 1,167,168
 418 300 418 300 448.5 312.5 c 128,-1,169
 479 325 479 325 513 325 c 0,170,171
 548 325 548 325 578.5 312.5 c 128,-1,172
 609 300 609 300 632 279 c 0,173,174
 640 268 640 268 652 262 c 128,-1,175
 664 256 664 256 679 256 c 1,176,-1
 679 256 l 1,177,178
 679 256 679 256 679 256 c 129,-1,179
 679 256 679 256 679 256 c 1,180,181
 703 256 703 256 720 273 c 128,-1,182
 737 290 737 290 737 314 c 1,183,184
 737 314 737 314 737 314 c 129,-1,185
 737 314 737 314 737 314 c 1,186,-1
 737 314 l 1,187,188
 737 327 737 327 732.5 337.5 c 128,-1,189
 728 348 728 348 720 356 c 1,190,-1
 720 356 l 1,191,192
 720 356 720 356 720 356 c 129,-1,193
 720 356 720 356 720 356 c 257,194,195
 720 356 720 356 720 356.5 c 128,-1,196
 720 357 720 357 720 357 c 257,197,198
 720 357 720 357 719.5 357 c 128,-1,199
 719 357 719 357 719 357 c 1,200,-1
 719 357 l 1,201,202
 680 396 680 396 626.5 419 c 128,-1,203
 573 442 573 442 513 442 c 1,204,-1
 513 442 l 1,144,145
513 268 m 1,205,206
 475 268 475 268 448.5 241 c 128,-1,207
 422 214 422 214 422 176 c 1,208,-1
 422 176 l 1,209,210
 422 139 422 139 448.5 112 c 128,-1,211
 475 85 475 85 513 85 c 1,212,-1
 513 85 l 1,213,214
 551 85 551 85 578 112 c 128,-1,215
 605 139 605 139 605 176 c 1,216,-1
 605 176 l 1,217,218
 605 214 605 214 578 241 c 128,-1,219
 551 268 551 268 513 268 c 1,220,-1
 513 268 l 1,205,206
EndSplineSet
EndChar

StartChar: uniE917
Encoding: 59671 59671 26
Width: 1024
GlyphClass: 1
Flags: W
LayerCount: 2
Fore
SplineSet
605 176 m 0,0,1
 605 139 605 139 578 112 c 128,-1,2
 551 85 551 85 513 85 c 256,3,4
 475 85 475 85 448.5 112 c 128,-1,5
 422 139 422 139 422 176 c 0,6,7
 422 214 422 214 448.5 241 c 128,-1,8
 475 268 475 268 513 268 c 256,9,10
 551 268 551 268 578 241 c 128,-1,11
 605 214 605 214 605 176 c 0,0,1
354 770 m 1,12,13
 314 759 314 759 275 743 c 0,14,15
 237 727 237 727 201 706.5 c 128,-1,16
 165 686 165 686 133 661 c 0,17,18
 100 636 100 636 71 607 c 1,19,-1
 71 607 l 1,20,-1
 71 607 l 1,21,22
 63 599 63 599 58 588 c 128,-1,23
 53 577 53 577 53 564 c 1,24,-1
 53 564 l 1,25,26
 53 540 53 540 70 522.5 c 128,-1,27
 87 505 87 505 111 505 c 1,28,29
 111 505 111 505 111 505 c 129,-1,30
 111 505 111 505 111 505 c 1,31,-1
 111 505 l 1,32,33
 126 505 126 505 138 511.5 c 128,-1,34
 150 518 150 518 158 529 c 1,35,-1
 159 529 l 1,36,37
 205 574 205 574 262.5 607 c 128,-1,38
 320 640 320 640 385 656 c 1,39,-1
 354 770 l 1,12,13
672 769 m 1,40,-1
 642 656 l 1,41,42
 708 639 708 639 766 605 c 128,-1,43
 824 571 824 571 871 524 c 1,44,45
 871 524 871 524 871 524 c 129,-1,46
 871 524 871 524 871 524 c 257,47,48
 871 524 871 524 871 524 c 129,-1,49
 871 524 871 524 871 524 c 1,50,-1
 871 524 l 1,51,52
 879 516 879 516 890 511.5 c 128,-1,53
 901 507 901 507 913 507 c 1,54,-1
 913 507 l 1,55,56
 913 507 913 507 913 507 c 129,-1,57
 913 507 913 507 913 507 c 1,58,59
 937 507 937 507 954 524 c 128,-1,60
 971 541 971 541 971 566 c 1,61,62
 971 566 971 566 971 566 c 129,-1,63
 971 566 971 566 971 566 c 1,64,-1
 971 566 l 1,65,66
 971 580 971 580 964.5 592.5 c 128,-1,67
 958 605 958 605 947 613 c 1,68,-1
 947 613 l 1,69,70
 919 641 919 641 887 665 c 256,71,72
 855 689 855 689 820.5 708.5 c 128,-1,73
 786 728 786 728 749 744 c 0,74,75
 712 759 712 759 672 769 c 1,76,-1
 672 769 l 1,40,-1
399 602 m 1,77,78
 339 586 339 586 286 555.5 c 128,-1,79
 233 525 233 525 190 482 c 1,80,-1
 190 482 l 1,81,82
 181 474 181 474 176 463 c 128,-1,83
 171 452 171 452 171 439 c 1,84,-1
 171 439 l 1,85,86
 171 439 171 439 171 439 c 129,-1,87
 171 439 171 439 171 439 c 1,88,89
 171 415 171 415 188.5 397.5 c 128,-1,90
 206 380 206 380 230 380 c 1,91,92
 230 380 230 380 230 380 c 129,-1,93
 230 380 230 380 230 380 c 1,94,-1
 230 380 l 1,95,96
 244 380 244 380 256.5 386.5 c 128,-1,97
 269 393 269 393 277 404 c 1,98,-1
 277 404 l 1,99,100
 309 434 309 434 347.5 456 c 128,-1,101
 386 478 386 478 430 489 c 1,102,-1
 399 602 l 1,103,-1
 399 602 l 1,77,78
627 602 m 1,104,-1
 597 488 l 1,105,106
 640 477 640 477 678 456 c 128,-1,107
 716 435 716 435 747 405 c 0,108,109
 755 395 755 395 767.5 388.5 c 128,-1,110
 780 382 780 382 794 382 c 1,111,-1
 794 382 l 1,112,113
 794 382 794 382 794 382 c 129,-1,114
 794 382 794 382 794 382 c 1,115,116
 818 382 818 382 835.5 399 c 128,-1,117
 853 416 853 416 853 441 c 1,118,119
 853 441 853 441 853 441 c 129,-1,120
 853 441 853 441 853 441 c 1,121,-1
 853 441 l 1,122,123
 853 453 853 453 848.5 463.5 c 128,-1,124
 844 474 844 474 836 482 c 1,125,-1
 836 482 l 1,126,127
 836 482 836 482 836 482 c 129,-1,128
 836 482 836 482 836 482 c 257,129,130
 836 482 836 482 836 482 c 129,-1,131
 836 482 836 482 836 482 c 1,132,-1
 836 482 l 1,133,134
 836 482 836 482 835.5 482 c 128,-1,135
 835 482 835 482 835 482 c 257,136,137
 835 482 835 482 835 482.5 c 128,-1,138
 835 483 835 483 835 483 c 1,139,-1
 835 483 l 1,140,141
 792 525 792 525 739.5 555.5 c 128,-1,142
 687 586 687 586 627 602 c 1,143,-1
 627 602 l 1,104,-1
444 434 m 1,144,145
 405 424 405 424 370 404 c 128,-1,146
 335 384 335 384 307 356 c 1,147,-1
 307 356 l 1,148,-1
 307 356 l 1,149,150
 299 348 299 348 294 337.5 c 128,-1,151
 289 327 289 327 289 314 c 1,152,-1
 289 314 l 1,153,154
 289 314 289 314 289 314 c 129,-1,155
 289 314 289 314 289 314 c 1,156,157
 289 290 289 290 306.5 273 c 128,-1,158
 324 256 324 256 348 256 c 1,159,160
 348 256 348 256 348 256 c 129,-1,161
 348 256 348 256 348 256 c 1,162,-1
 348 256 l 1,163,164
 362 256 362 256 374.5 262 c 128,-1,165
 387 268 387 268 395 279 c 1,166,-1
 395 279 l 1,167,168
 411 294 411 294 431.5 304.5 c 128,-1,169
 452 315 452 315 475 320 c 1,170,-1
 444 434 l 1,171,-1
 444 434 l 1,144,145
582 434 m 1,172,-1
 552 320 l 1,173,174
 575 315 575 315 595 304.5 c 128,-1,175
 615 294 615 294 632 279 c 0,176,177
 640 268 640 268 652 262 c 128,-1,178
 664 256 664 256 679 256 c 1,179,-1
 679 256 l 1,180,181
 679 256 679 256 679 256 c 129,-1,182
 679 256 679 256 679 256 c 1,183,184
 703 256 703 256 720 273 c 128,-1,185
 737 290 737 290 737 314 c 1,186,187
 737 314 737 314 737 314 c 129,-1,188
 737 314 737 314 737 314 c 1,189,-1
 737 314 l 1,190,191
 737 327 737 327 732.5 337.5 c 128,-1,192
 728 348 728 348 720 356 c 1,193,-1
 720 356 l 1,194,195
 720 356 720 356 720 356 c 129,-1,196
 720 356 720 356 720 357 c 1,197,198
 720 357 720 357 719.5 357 c 128,-1,199
 719 357 719 357 719 357 c 1,200,-1
 719 357 l 1,201,202
 691 384 691 384 656.5 404 c 128,-1,203
 622 424 622 424 582 434 c 1,204,-1
 582 434 l 1,172,-1
388 828 m 1,205,-1
 514 358 l 1,206,-1
 641 828 l 1,207,-1
 388 828 l 1,205,-1
EndSplineSet
EndChar

StartChar: uniE919
Encoding: 59673 59673 27
Width: 1024
LayerCount: 2
Fore
SplineSet
512.006835938 960 m 128,-1,1
 435.909592667 960 435.909592667 960 382.384972115 906.475182075 c 128,-1,2
 328.860351562 852.950364151 328.860351562 852.950364151 328.860351562 776.852539062 c 2,3,-1
 328.860351562 410.55859375 l 2,4,5
 328.860351562 334.460768662 328.860351562 334.460768662 382.384972115 280.935950737 c 128,-1,6
 435.909592667 227.411132812 435.909592667 227.411132812 512.006835938 227.411132812 c 128,-1,7
 588.104736328 227.411132812 588.104736328 227.411132812 641.629516602 280.935913086 c 128,-1,8
 695.154296875 334.460693359 695.154296875 334.460693359 695.154296875 410.55859375 c 2,9,-1
 695.154296875 776.852539062 l 2,10,11
 695.154296875 852.950439453 695.154296875 852.950439453 641.629516602 906.475219727 c 128,-1,0
 588.104736328 960 588.104736328 960 512.006835938 960 c 128,-1,1
270.23828125 623.008789062 m 128,-1,13
 258.111572266 623.008789062 258.111572266 623.008789062 249.526977539 614.424194336 c 128,-1,14
 240.942382812 605.839599609 240.942382812 605.839599609 240.942382812 593.712890625 c 2,15,-1
 240.942382812 410.55859375 l 2,16,17
 240.942382812 306.979443127 240.942382812 306.979443127 310.950785866 229.606616013 c 128,-1,18
 380.95918892 152.233788899 380.95918892 152.233788899 482.853515625 141.1171875 c 1,19,-1
 482.717773438 -34.7041015625 l 2,20,21
 482.717773438 -46.8307175 482.717773438 -46.8307175 491.30280992 -55.41535875 c 128,-1,22
 499.887846402 -64 499.887846402 -64 512.014648438 -64 c 128,-1,23
 524.141357422 -64 524.141357422 -64 532.725952148 -55.4154052734 c 128,-1,24
 541.310546875 -46.8308105469 541.310546875 -46.8308105469 541.310546875 -34.7041015625 c 2,25,-1
 541.310546875 141.1171875 l 1,26,27
 643.058653624 152.232816029 643.058653624 152.232816029 713.058135406 229.605081379 c 128,-1,28
 783.057617188 306.97734673 783.057617188 306.97734673 783.057617188 410.55859375 c 2,29,-1
 783.057617188 593.712890625 l 2,30,31
 783.057617188 605.839599609 783.057617188 605.839599609 774.473022461 614.424194336 c 128,-1,32
 765.888427734 623.008789062 765.888427734 623.008789062 753.76171875 623.008789062 c 128,-1,33
 741.634916714 623.008789062 741.634916714 623.008789062 733.049880232 614.424147812 c 128,-1,34
 724.46484375 605.839506562 724.46484375 605.839506562 724.46484375 593.712890625 c 2,35,-1
 724.46484375 410.55859375 l 2,36,37
 724.46484375 322.665678504 724.46484375 322.665678504 662.186110737 260.38655019 c 128,-1,38
 599.907377723 198.107421875 599.907377723 198.107421875 512.014648438 198.107421875 c 128,-1,39
 424.121826172 198.107421875 424.121826172 198.107421875 361.842651367 260.38659668 c 128,-1,40
 299.563476562 322.665771484 299.563476562 322.665771484 299.563476562 410.55859375 c 2,41,-1
 299.563476562 593.712890625 l 2,42,43
 299.534179688 605.839599609 299.534179688 605.839599609 290.949584961 614.424194336 c 128,-1,12
 282.364990234 623.008789062 282.364990234 623.008789062 270.23828125 623.008789062 c 128,-1,13
EndSplineSet
EndChar

StartChar: uniE918
Encoding: 59672 59672 28
Width: 1024
LayerCount: 2
Fore
SplineSet
92.16015625 914.78515625 m 2,0,1
 53.8676757812 914.78515625 53.8676757812 914.78515625 26.9338378906 887.851318359 c 128,-1,2
 0 860.917480469 0 860.917480469 0 822.625 c 128,-1,3
 0 784.332519531 0 784.332519531 26.9338378906 757.398681641 c 128,-1,4
 53.8676757812 730.46484375 53.8676757812 730.46484375 92.16015625 730.46484375 c 2,5,-1
 931.83984375 730.46484375 l 2,6,7
 970.132324219 730.46484375 970.132324219 730.46484375 997.066162109 757.398681641 c 128,-1,8
 1024 784.332519531 1024 784.332519531 1024 822.625 c 128,-1,9
 1024 860.917480469 1024 860.917480469 997.066162109 887.851318359 c 128,-1,10
 970.132324219 914.78515625 970.132324219 914.78515625 931.83984375 914.78515625 c 2,11,-1
 92.16015625 914.78515625 l 2,0,1
102.400390625 540.16015625 m 2,12,13
 59.8532319387 540.16015625 59.8532319387 540.16015625 29.9266159693 513.226300564 c 128,-1,14
 0 486.292444878 0 486.292444878 0 448 c 128,-1,15
 0 409.707555122 0 409.707555122 29.9266159693 382.773699436 c 128,-1,16
 59.8532319387 355.83984375 59.8532319387 355.83984375 102.400390625 355.83984375 c 2,17,-1
 921.599609375 355.83984375 l 2,18,19
 964.146768061 355.83984375 964.146768061 355.83984375 994.073384031 382.773699436 c 128,-1,20
 1024 409.707555122 1024 409.707555122 1024 448 c 128,-1,21
 1024 486.292444878 1024 486.292444878 994.073384031 513.226300564 c 128,-1,22
 964.146768061 540.16015625 964.146768061 540.16015625 921.599609375 540.16015625 c 2,23,-1
 102.400390625 540.16015625 l 2,12,13
102.400390625 165.53515625 m 2,24,25
 59.8532319387 165.53515625 59.8532319387 165.53515625 29.9266159693 138.601300564 c 128,-1,26
 0 111.667444878 0 111.667444878 0 73.375 c 128,-1,27
 0 35.0825551222 0 35.0825551222 29.9266159693 8.14869943612 c 128,-1,28
 59.8532319387 -18.78515625 59.8532319387 -18.78515625 102.400390625 -18.78515625 c 2,29,-1
 921.599609375 -18.78515625 l 2,30,31
 964.146768061 -18.78515625 964.146768061 -18.78515625 994.073384031 8.14869943612 c 128,-1,32
 1024 35.0825551222 1024 35.0825551222 1024 73.375 c 128,-1,33
 1024 111.667444878 1024 111.667444878 994.073384031 138.601300564 c 128,-1,34
 964.146768061 165.53515625 964.146768061 165.53515625 921.599609375 165.53515625 c 2,35,-1
 102.400390625 165.53515625 l 2,24,25
EndSplineSet
EndChar

StartChar: uniE91A
Encoding: 59674 59674 29
Width: 1024
LayerCount: 2
Fore
SplineSet
512.004882812 960 m 128,-1,1
 435.907714844 960 435.907714844 960 382.384033203 906.476318359 c 128,-1,2
 328.860351562 852.952636719 328.860351562 852.952636719 328.860351562 776.85546875 c 2,3,-1
 328.860351562 410.559570312 l 2,4,5
 328.860351562 395.563821752 328.860351562 395.563821752 331.360351562 380.375 c 1,6,-1
 695.155273438 744.169921875 l 1,7,-1
 695.155273438 776.85546875 l 2,8,9
 695.155273438 852.952244348 695.155273438 852.952244348 641.629224514 906.476122174 c 128,-1,0
 588.10317559 960 588.10317559 960 512.004882812 960 c 128,-1,1
270.240234375 623.009765625 m 128,-1,11
 258.113060113 623.009765625 258.113060113 623.009765625 249.5267449 614.425426595 c 128,-1,12
 240.940429688 605.841087564 240.940429688 605.841087564 240.940429688 593.71484375 c 2,13,-1
 240.940429688 410.559570312 l 2,14,15
 240.940429688 358.304997927 240.940429688 358.304997927 260.6953125 309.709960938 c 1,16,-1
 306.754882812 355.76953125 l 1,17,18
 299.565429688 382.704411284 299.565429688 382.704411284 299.565429688 410.559570312 c 2,19,-1
 299.565429688 593.71484375 l 2,20,21
 299.534423818 605.840988921 299.534423818 605.840988921 290.950233081 614.425377273 c 128,-1,10
 282.366042343 623.009765625 282.366042343 623.009765625 270.240234375 623.009765625 c 128,-1,11
781.139648438 604.115234375 m 1,22,-1
 724.46484375 547.440429688 l 1,23,-1
 724.46484375 410.559570312 l 2,24,25
 724.46484375 322.667404889 724.46484375 322.667404889 662.186119436 260.388878226 c 128,-1,26
 599.907395123 198.110351562 599.907395123 198.110351562 512.014648438 198.110351562 c 0,27,28
 454.216161194 198.110351562 454.216161194 198.110351562 404.459960938 227.434570312 c 1,29,-1
 362.28515625 185.259765625 l 1,30,31
 417.582447369 148.240626643 417.582447369 148.240626643 482.85546875 141.120117188 c 1,32,-1
 482.719726562 -34.705078125 l 2,33,34
 482.720458984 -46.8310546875 482.720458984 -46.8310546875 491.30456543 -55.4151611328 c 128,-1,35
 499.888671875 -63.9992675781 499.888671875 -63.9992675781 512.014648438 -64 c 128,-1,36
 524.140793608 -63.9992675679 524.140793608 -63.9992675679 532.72518196 -55.4150768306 c 128,-1,37
 541.309570312 -46.8308860933 541.309570312 -46.8308860933 541.309570312 -34.705078125 c 2,38,-1
 541.309570312 141.120117188 l 1,39,40
 643.060802629 152.235767086 643.060802629 152.235767086 713.060186471 229.607139843 c 128,-1,41
 783.059570312 306.978512599 783.059570312 306.978512599 783.059570312 410.559570312 c 2,42,-1
 783.059570312 593.71484375 l 2,43,44
 783.053826171 599.092796609 783.053826171 599.092796609 781.139648438 604.115234375 c 1,22,-1
695.155273438 518.129882812 m 1,45,-1
 425.834960938 248.809570312 l 1,46,47
 466.071801104 227.41015625 466.071801104 227.41015625 512.004882812 227.41015625 c 0,48,49
 588.1027079 227.41015625 588.1027079 227.41015625 641.628990669 280.936241645 c 128,-1,50
 695.155273438 334.462327041 695.155273438 334.462327041 695.155273438 410.559570312 c 2,51,-1
 695.155273438 518.129882812 l 1,45,-1
181.467773438 188.849609375 m 2,52,-1
 771.150390625 778.532226562 l 2,53,54
 785.98046875 793.362304688 785.98046875 793.362304688 806.841674805 793.362304688 c 128,-1,55
 827.702880859 793.362304688 827.702880859 793.362304688 842.532226562 778.532226562 c 128,-1,56
 857.362304688 763.702880859 857.362304688 763.702880859 857.362304688 742.841674805 c 128,-1,57
 857.362304688 721.98046875 857.362304688 721.98046875 842.532226562 707.150390625 c 2,58,-1
 252.849609375 117.467773438 l 2,59,60
 238.01953125 102.637695312 238.01953125 102.637695312 217.158325195 102.637695312 c 128,-1,61
 196.297119141 102.637695312 196.297119141 102.637695312 181.467773438 117.467773438 c 128,-1,62
 166.637695312 132.297119141 166.637695312 132.297119141 166.637695312 153.158325195 c 128,-1,63
 166.637695312 174.01953125 166.637695312 174.01953125 181.467773438 188.849609375 c 2,52,-1
EndSplineSet
EndChar

StartChar: uniE91B
Encoding: 59675 59675 30
Width: 1024
LayerCount: 2
Fore
SplineSet
511.98828125 960 m 128,-1,1
 408.014411774 960 408.014411774 960 313.215958888 919.384108251 c 128,-1,2
 218.417506002 878.768216502 218.417506002 878.768216502 149.82464475 810.17535525 c 128,-1,3
 81.2317834982 741.582493998 81.2317834982 741.582493998 40.6158917491 646.784041112 c 128,-1,4
 0 551.985588226 0 551.985588226 0 448.01171875 c 128,-1,5
 -0 344.037941137 -0 344.037941137 40.6159970879 249.236100541 c 128,-1,6
 81.2319941758 154.434259945 81.2319941758 154.434259945 149.824539411 85.8367754355 c 128,-1,7
 218.417084646 17.2392909259 218.417084646 17.2392909259 313.216064227 -23.3803545371 c 128,-1,8
 408.015043807 -64 408.015043807 -64 511.98828125 -64 c 128,-1,9
 615.961426808 -64 615.961426808 -64 710.763794116 -23.3802491946 c 128,-1,10
 805.566161425 17.2395016109 805.566161425 17.2395016109 874.163329907 85.836670093 c 128,-1,11
 942.760498389 154.433838575 942.760498389 154.433838575 983.380249195 249.236205884 c 128,-1,12
 1024 344.038573192 1024 344.038573192 1024 448.01171875 c 128,-1,13
 1024 551.984956193 1024 551.984956193 983.380354537 646.783935773 c 128,-1,14
 942.760709074 741.582915354 942.760709074 741.582915354 874.163224564 810.175460589 c 128,-1,15
 805.565740055 878.768005824 805.565740055 878.768005824 710.763899459 919.384002912 c 128,-1,0
 615.962058863 960 615.962058863 960 511.98828125 960 c 128,-1,1
511.98828125 877.856445312 m 0,16,-1
 511.99609375 18.1435546875 l 1,17,18
 394.966453612 18.1435546875 394.966453612 18.1435546875 295.977046346 75.571873484 c 128,-1,19
 196.987639079 133.000192281 196.987639079 133.000192281 139.565596883 231.994207245 c 128,-1,20
 82.1435546875 330.98822221 82.1435546875 330.98822221 82.1435546875 448.01171875 c 128,-1,21
 82.1435546875 565.034599329 82.1435546875 565.034599329 139.565860119 664.02321689 c 128,-1,22
 196.98816555 763.01183445 196.98816555 763.01183445 295.97678311 820.434139881 c 128,-1,23
 394.965400671 877.856445312 394.965400671 877.856445312 511.98828125 877.856445312 c 0,16,-1
EndSplineSet
EndChar

StartChar: uniE91C
Encoding: 59676 59676 31
Width: 1024
LayerCount: 2
Fore
SplineSet
532.23828125 960 m 128,-1,1
 483.362228697 960 483.362228697 960 448.348594817 924.986168059 c 128,-1,2
 413.334960938 889.972336118 413.334960938 889.972336118 413.334960938 841.095703125 c 2,3,-1
 413.334960938 388.813476562 l 1,4,-1
 413.334960938 333.4609375 l 1,5,6
 368.41528136 303.766800261 368.41528136 303.766800261 342.011839899 255.962555529 c 128,-1,7
 315.608398438 208.158310797 315.608398438 208.158310797 315.608398438 152.629882812 c 0,8,9
 315.608398438 63.2590999574 315.608398438 63.2590999574 379.228848306 -0.370450021301 c 128,-1,10
 442.849298175 -64 442.849298175 -64 532.215820312 -64 c 128,-1,11
 621.584573611 -64 621.584573611 -64 685.212696962 -0.369700510201 c 128,-1,12
 748.840820312 63.2605989796 748.840820312 63.2605989796 748.840820312 152.629882812 c 0,13,14
 748.840820312 208.152289843 748.840820312 208.152289843 722.438942918 255.953228221 c 128,-1,15
 696.037065524 303.7541666 696.037065524 303.7541666 651.120117188 333.44921875 c 1,16,-1
 651.120117188 388.813476562 l 1,17,-1
 651.120117188 433.743164062 l 1,18,-1
 651.120117188 841.095703125 l 2,19,20
 651.120117188 889.97453233 651.120117188 889.97453233 616.116493876 924.987266165 c 128,-1,0
 581.112870565 960 581.112870565 960 532.23828125 960 c 128,-1,1
532.23828125 879.1015625 m 128,-1,22
 548.549262747 879.1015625 548.549262747 879.1015625 559.385471217 868.256375418 c 128,-1,23
 570.221679688 857.411188336 570.221679688 857.411188336 570.221679688 841.095703125 c 2,24,-1
 570.221679688 388.813476562 l 1,25,-1
 570.221679688 282.97265625 l 1,26,27
 574.929124059 281.599283643 574.929124059 281.599283643 579.521484375 279.891601562 c 0,28,29
 615.597804807 266.707497348 615.597804807 266.707497348 639.383971319 236.299903852 c 128,-1,30
 663.170137832 205.892310356 663.170137832 205.892310356 667.185546875 166.962890625 c 0,31,32
 667.246640192 166.370624856 667.246640192 166.370624856 667.287109375 165.94140625 c 0,33,34
 667.501030446 163.717832296 667.501030446 163.717832296 667.637695312 161.596679688 c 0,35,36
 667.726479255 160.249612978 667.726479255 160.249612978 667.784179688 159.03515625 c 128,-1,37
 667.831445011 157.99042962 667.831445011 157.99042962 667.857421875 157.155273438 c 0,38,39
 667.919929443 155.297093906 667.919929443 155.297093906 667.931640625 153.369140625 c 0,40,41
 667.947265625 152.757993637 667.947265625 152.757993637 667.947265625 152.629882812 c 0,42,43
 667.947265625 148.378506747 667.947265625 148.378506747 667.586914062 143.087890625 c 0,44,45
 667.552066201 142.626156456 667.552066201 142.626156456 667.501953125 142.009765625 c 0,46,47
 663.470827908 89.0251673826 663.470827908 89.0251673826 624.694490208 52.9618024413 c 128,-1,48
 585.918152509 16.8984375 585.918152509 16.8984375 532.215820312 16.8984375 c 128,-1,49
 478.554808412 16.8984375 478.554808412 16.8984375 439.800054407 52.9129267039 c 128,-1,50
 401.045300403 88.9274159078 401.045300403 88.9274159078 396.963867188 141.86328125 c 0,51,52
 396.910876331 142.501889005 396.910876331 142.501889005 396.856445312 143.234375 c 0,53,54
 396.5078125 148.465511682 396.5078125 148.465511682 396.5078125 152.629882812 c 0,55,-1
 396.5078125 152.717773438 l 2,56,57
 396.511974786 157.469466782 396.511974786 157.469466782 396.880859375 162.623046875 c 0,58,59
 399.855147653 203.147804089 399.855147653 203.147804089 423.874681993 234.748693898 c 128,-1,60
 447.894216333 266.349583708 447.894216333 266.349583708 484.798828125 279.947265625 c 0,61,62
 489.564462954 281.544163008 489.564462954 281.544163008 494.228515625 282.909179688 c 1,63,64
 494.195529514 282.898328993 494.195529514 282.898328993 494.195529514 309.374403212 c 128,-1,65
 494.195529514 335.850477431 494.195529514 335.850477431 494.212022569 362.331976997 c 2,66,-1
 494.228515625 388.813476562 l 1,67,-1
 494.228515625 841.095703125 l 2,68,69
 494.228515625 857.408348476 494.228515625 857.408348476 505.07746519 868.254955488 c 128,-1,21
 515.926414755 879.1015625 515.926414755 879.1015625 532.23828125 879.1015625 c 128,-1,22
275.159179688 839.651367188 m 1,70,-1
 275.159179688 758.752929688 l 1,71,-1
 356.057617188 758.752929688 l 1,72,-1
 356.057617188 839.651367188 l 1,73,-1
 275.159179688 839.651367188 l 1,70,-1
275.159179688 677.854492188 m 1,74,-1
 275.159179688 596.956054688 l 1,75,-1
 356.057617188 596.956054688 l 1,76,-1
 356.057617188 677.854492188 l 1,77,-1
 275.159179688 677.854492188 l 1,74,-1
275.159179688 516.057617188 m 1,78,-1
 275.159179688 435.159179688 l 1,79,-1
 356.057617188 435.159179688 l 1,80,-1
 356.057617188 516.057617188 l 1,81,-1
 275.159179688 516.057617188 l 1,78,-1
EndSplineSet
EndChar

StartChar: uniE91D
Encoding: 59677 59677 32
Width: 1024
LayerCount: 2
Fore
SplineSet
173.79296875 931.591796875 m 2,0,1
 102.730300933 931.591796875 102.730300933 931.591796875 51.3651504667 880.226844803 c 128,-1,2
 0 828.861892731 0 828.861892731 0 757.798828125 c 2,3,-1
 -0 419.922851562 l 2,4,5
 0 348.859695465 0 348.859695465 51.3651962129 297.494300858 c 128,-1,6
 102.730392426 246.12890625 102.730392426 246.12890625 173.79296875 246.12890625 c 2,7,-1
 850.173828125 246.12890625 l 2,8,9
 921.240079784 246.12890625 921.240079784 246.12890625 972.620039892 297.495771929 c 128,-1,10
 1024 348.862637608 1024 348.862637608 1024 419.922851562 c 2,11,-1
 1024 757.798828125 l 2,12,13
 1024 828.858950611 1024 828.858950611 972.62008565 880.225373743 c 128,-1,14
 921.2401713 931.591796875 921.2401713 931.591796875 850.173828125 931.591796875 c 2,15,-1
 173.79296875 931.591796875 l 2,0,1
173.79296875 842.749023438 m 2,16,-1
 850.181640625 842.749023438 l 2,17,18
 885.476133716 842.749023438 885.476133716 842.749023438 910.300078577 817.921723243 c 128,-1,19
 935.124023438 793.094423048 935.124023438 793.094423048 935.124023438 757.798828125 c 2,20,-1
 935.124023438 419.922851562 l 2,21,22
 935.124023438 384.627441406 935.124023438 384.627441406 910.300537109 359.803955078 c 128,-1,23
 885.477050781 334.98046875 885.477050781 334.98046875 850.181640625 334.98046875 c 2,24,-1
 173.79296875 334.98046875 l 2,25,26
 138.497373827 334.98046875 138.497373827 334.98046875 113.670073632 359.804413611 c 128,-1,27
 88.8427734375 384.628358471 88.8427734375 384.628358471 88.8427734375 419.922851562 c 2,28,-1
 88.8427734375 757.798828125 l 2,29,30
 88.8427734375 793.093505859 88.8427734375 793.093505859 113.670532227 817.921264648 c 128,-1,31
 138.498291016 842.749023438 138.498291016 842.749023438 173.79296875 842.749023438 c 2,16,-1
321.114257812 109.115234375 m 2,32,-1
 321.114257812 12.5703125 l 2,33,34
 321.114257812 -23.5512695312 321.114257812 -23.5512695312 327.134643555 -29.5715332031 c 128,-1,35
 333.155029297 -35.591796875 333.155029297 -35.591796875 369.27734375 -35.591796875 c 2,36,-1
 654.689453125 -35.591796875 l 2,37,38
 690.811767578 -35.591796875 690.811767578 -35.591796875 696.83215332 -29.5715332031 c 128,-1,39
 702.852539062 -23.5512695312 702.852539062 -23.5512695312 702.852539062 12.5703125 c 2,40,-1
 702.852539062 109.115234375 l 2,41,42
 702.852539062 145.236816406 702.852539062 145.236816406 696.83215332 151.257080078 c 128,-1,43
 690.811767578 157.27734375 690.811767578 157.27734375 654.689453125 157.27734375 c 2,44,-1
 369.27734375 157.27734375 l 2,45,46
 333.155029297 157.27734375 333.155029297 157.27734375 327.134643555 151.257080078 c 128,-1,47
 321.114257812 145.236816406 321.114257812 145.236816406 321.114257812 109.115234375 c 2,32,-1
EndSplineSet
EndChar

StartChar: uniE91E
Encoding: 59678 59678 33
Width: 1024
LayerCount: 2
Fore
SplineSet
64 768 m 2,0,1
 37 768 37 768 18.5 749.5 c 128,-1,2
 0 731 0 731 0 704 c 2,3,-1
 -0 192 l 2,4,5
 0 165 0 165 18.5 146.5 c 128,-1,6
 37 128 37 128 64 128 c 2,7,-1
 960 128 l 2,8,9
 987 128 987 128 1005.5 146.5 c 128,-1,10
 1024 165 1024 165 1024 192 c 2,11,-1
 1024 704 l 2,12,13
 1024 731 1024 731 1005.5 749.5 c 128,-1,14
 987 768 987 768 960 768 c 2,15,-1
 64 768 l 2,0,1
64 704 m 1,16,-1
 192 704 l 1,17,-1
 192 576 l 1,18,-1
 64 576 l 1,19,-1
 64 704 l 1,16,-1
256 704 m 1,20,-1
 384 704 l 1,21,-1
 384 576 l 1,22,-1
 256 576 l 1,23,-1
 256 704 l 1,20,-1
448 704 m 1,24,-1
 576 704 l 1,25,-1
 576 576 l 1,26,-1
 448 576 l 1,27,-1
 448 704 l 1,24,-1
640 704 m 1,28,-1
 768 704 l 1,29,-1
 768 576 l 1,30,-1
 640 576 l 1,31,-1
 640 704 l 1,28,-1
832 704 m 1,32,-1
 960 704 l 1,33,-1
 960 576 l 1,34,-1
 832 576 l 1,35,-1
 832 704 l 1,32,-1
64 512 m 1,36,-1
 192 512 l 1,37,-1
 192 384 l 1,38,-1
 64 384 l 1,39,-1
 64 512 l 1,36,-1
256 512 m 1,40,-1
 384 512 l 1,41,-1
 384 384 l 1,42,-1
 256 384 l 1,43,-1
 256 512 l 1,40,-1
448 512 m 1,44,-1
 576 512 l 1,45,-1
 576 384 l 1,46,-1
 448 384 l 1,47,-1
 448 512 l 1,44,-1
640 512 m 1,48,-1
 768 512 l 1,49,-1
 768 384 l 1,50,-1
 640 384 l 1,51,-1
 640 512 l 1,48,-1
832 512 m 1,52,-1
 960 512 l 1,53,-1
 960 384 l 1,54,-1
 832 384 l 1,55,-1
 832 512 l 1,52,-1
256 320 m 1,56,-1
 768 320 l 1,57,-1
 768 192 l 1,58,-1
 256 192 l 1,59,-1
 256 320 l 1,56,-1
EndSplineSet
EndChar
